<svg width="38" height="38" viewBox="0 0 38 38" fill="none" xmlns="http://www.w3.org/2000/svg">
<g clip-path="url(#clip0_201_327)">
<path d="M8.23335 1.64135e-05H29.7667C30.8485 -0.00214496 31.9201 0.209341 32.92 0.622339C33.9199 1.03534 34.8284 1.64172 35.5933 2.40668C36.3583 3.17165 36.9647 4.08014 37.3777 5.08003C37.7907 6.07992 38.0022 7.15153 38 8.23335V29.7667C38.0022 30.8485 37.7907 31.9201 37.3777 32.92C36.9647 33.9199 36.3583 34.8284 35.5933 35.5933C34.8284 36.3583 33.9199 36.9647 32.92 37.3777C31.9201 37.7907 30.8485 38.0022 29.7667 38H8.23335C7.15153 38.0022 6.07992 37.7907 5.08003 37.3777C4.08014 36.9647 3.17165 36.3583 2.40668 35.5933C1.64172 34.8284 1.03534 33.9199 0.622339 32.92C0.209341 31.9201 -0.00214496 30.8485 1.64135e-05 29.7667V8.23335C-0.0021458 7.15153 0.20934 6.07992 0.622338 5.08003C1.03534 4.08014 1.64172 3.17165 2.40668 2.40668C3.17165 1.64172 4.08014 1.03534 5.08003 0.622338C6.07992 0.20934 7.15153 -0.0021458 8.23335 1.64135e-05Z" fill="#D65862"/>
<g filter="url(#filter0_d_201_327)">
<path d="M19.2718 28.5C18.0872 28.5 17.0028 28.3554 16.0186 28.0661C15.0526 27.7769 14.1869 27.352 13.4215 26.7916C13.0673 26.526 12.7295 26.234 12.4081 25.9155C11.7728 25.2862 11.8249 24.2762 12.4178 23.6068C13.2137 22.7081 14.6141 22.8105 15.5146 23.6044C15.8847 23.9307 16.2532 24.1886 16.62 24.3781C17.5131 24.812 18.479 25.0289 19.5179 25.0289C20.0828 25.0289 20.584 24.9566 21.0215 24.812C21.4771 24.6493 21.8325 24.4233 22.0876 24.1341C22.3428 23.8448 22.4704 23.5013 22.4704 23.1036C22.4704 22.8143 22.4066 22.5522 22.279 22.3172C22.1514 22.0641 21.9692 21.8471 21.7323 21.6663C21.4953 21.4675 21.2128 21.2957 20.8848 21.1511C20.5567 20.9884 20.1922 20.8528 19.7912 20.7443C19.3903 20.6178 18.9529 20.5183 18.479 20.446C17.4584 20.211 16.5653 19.9308 15.7999 19.6054C15.0344 19.2619 14.3965 18.8461 13.8862 18.358C13.3759 17.8518 12.9932 17.2823 12.738 16.6495C12.5011 16.0168 12.3826 15.3027 12.3826 14.5072C12.3826 13.6937 12.5649 12.9434 12.9294 12.2564C13.2939 11.5514 13.7951 10.9457 14.433 10.4395C15.0891 9.93334 15.8363 9.54465 16.6747 9.27347C17.5313 9.00229 18.4334 8.8667 19.3812 8.8667C20.5476 8.8667 21.5682 9.00229 22.443 9.27347C23.3179 9.52657 24.0742 9.89718 24.7121 10.3853C24.9643 10.5729 25.2003 10.7765 25.4201 10.9961C26.0416 11.617 25.8995 12.6101 25.266 13.2186L25.0507 13.4255C24.3613 14.0877 23.261 13.9708 22.4977 13.3954C22.0603 13.0519 21.5773 12.7988 21.0488 12.6361C20.5385 12.4553 20.0099 12.3649 19.4632 12.3649C18.8617 12.3649 18.3423 12.4463 17.9049 12.609C17.4675 12.7536 17.1212 12.9705 16.8661 13.2598C16.6291 13.5491 16.5107 13.9016 16.5107 14.3174C16.5107 14.6428 16.5927 14.9321 16.7567 15.1852C16.9207 15.4383 17.1577 15.6642 17.4675 15.8631C17.7773 16.0439 18.151 16.2066 18.5884 16.3512C19.0258 16.4959 19.5087 16.6224 20.0373 16.7309C21.0397 16.9297 21.9418 17.1919 22.7438 17.5173C23.5457 17.8427 24.2291 18.2404 24.7941 18.7105C25.3773 19.1624 25.8239 19.7048 26.1337 20.3376C26.4435 20.9522 26.5984 21.6483 26.5984 22.4256C26.5984 23.7092 26.2886 24.803 25.6689 25.7069C25.0493 26.6108 24.1927 27.3068 23.0992 27.795C22.0056 28.265 20.7299 28.5 19.2718 28.5Z" fill="white"/>
</g>
</g>
<defs>
<filter id="filter0_d_201_327" x="7.95312" y="8.8667" width="22.6445" height="27.6333" filterUnits="userSpaceOnUse" color-interpolation-filters="sRGB">
<feFlood flood-opacity="0" result="BackgroundImageFix"/>
<feColorMatrix in="SourceAlpha" type="matrix" values="0 0 0 0 0 0 0 0 0 0 0 0 0 0 0 0 0 0 127 0" result="hardAlpha"/>
<feOffset dy="4"/>
<feGaussianBlur stdDeviation="2"/>
<feComposite in2="hardAlpha" operator="out"/>
<feColorMatrix type="matrix" values="0 0 0 0 0 0 0 0 0 0 0 0 0 0 0 0 0 0 0.25 0"/>
<feBlend mode="normal" in2="BackgroundImageFix" result="effect1_dropShadow_201_327"/>
<feBlend mode="normal" in="SourceGraphic" in2="effect1_dropShadow_201_327" result="shape"/>
</filter>
<clipPath id="clip0_201_327">
<rect width="38" height="38" fill="white"/>
</clipPath>
</defs>
</svg>
