<svg width="24" height="24" viewBox="0 0 20 17" fill="none" xmlns="http://www.w3.org/2000/svg">
<path d="M13.2152 17H11.2919L9.50603 12.5262H3.70919L1.92335 17H0L5.71469 2.68373C6.0282 1.86463 7.18702 1.86463 7.50053 2.68373L13.2152 17ZM17.3226 8.9471V17H15.5368V8.9471H17.3226ZM4.42353 10.7366H8.79169L6.60761 5.26513L4.42353 10.7366ZM16.0092 0.285754C16.0427 0.201427 16.1007 0.129117 16.1757 0.0781742C16.2506 0.0272318 16.3391 0 16.4297 0C16.5203 0 16.6088 0.0272318 16.6838 0.0781742C16.7588 0.129117 16.8168 0.201427 16.8503 0.285754L17.0762 0.831562C17.4552 1.75771 18.1743 2.50293 19.0853 2.91368L19.7255 3.20001C19.8075 3.23802 19.8769 3.29874 19.9255 3.375C19.9742 3.45127 20 3.53988 20 3.63039C20 3.7209 19.9742 3.80952 19.9255 3.88578C19.8769 3.96205 19.8075 4.02277 19.7255 4.06078L19.0487 4.36321C18.1599 4.7622 17.4526 5.48052 17.0664 6.37643L16.8467 6.88287C16.8124 6.96534 16.7545 7.03578 16.6803 7.08533C16.6061 7.13488 16.5189 7.16132 16.4297 7.16132C16.3406 7.16132 16.2534 7.13488 16.1792 7.08533C16.105 7.03578 16.0471 6.96534 16.0127 6.88287L15.7922 6.37733C15.4064 5.48124 14.6994 4.7626 13.8108 4.36321L13.1322 4.06078C13.05 4.02288 12.9803 3.96215 12.9315 3.88579C12.8826 3.80942 12.8567 3.72064 12.8567 3.62995C12.8567 3.53926 12.8826 3.45047 12.9315 3.37411C12.9803 3.29775 13.05 3.23702 13.1322 3.19912L13.7733 2.91279C14.6843 2.50265 15.4036 1.7581 15.7833 0.832457L16.0092 0.285754Z" fill="currentColor"/>
</svg>
