<svg width="24" height="24" viewBox="0 0 24 24" fill="none" xmlns="http://www.w3.org/2000/svg">
<rect x="15.9141" y="6.41846" width="3" height="17.2891" rx="1" transform="rotate(45 15.9141 6.41846)" fill="#EDEDED"/>
<path d="M8.67188 13.6597L10.7932 15.781L6.5162 20.058C6.12568 20.4485 5.49251 20.4485 5.10199 20.058L4.39488 19.3509C4.00436 18.9604 4.00436 18.3272 4.39488 17.9367L8.67188 13.6597Z" fill="#FF3871"/>
<path d="M9.7667 3.31314C9.84076 3.11299 10.1239 3.11299 10.1979 3.31314L10.6857 4.63137C10.709 4.69429 10.7586 4.74391 10.8215 4.76719L12.1398 5.25498C12.3399 5.32904 12.3399 5.61213 12.1398 5.6862L10.8215 6.17398C10.7586 6.19727 10.709 6.24688 10.6857 6.30981L10.1979 7.62803C10.1239 7.82818 9.84076 7.82819 9.7667 7.62803L9.27891 6.30981C9.25563 6.24688 9.20601 6.19727 9.14308 6.17398L7.82486 5.6862C7.62471 5.61213 7.62471 5.32904 7.82486 5.25498L9.14308 4.76719C9.20601 4.74391 9.25563 4.69429 9.27891 4.63137L9.7667 3.31314Z" fill="#FF3871"/>
<path d="M18.5399 12.3554C18.5851 12.2333 18.7578 12.2333 18.803 12.3554L19.1005 13.1595C19.1147 13.1979 19.145 13.2282 19.1834 13.2424L19.9875 13.5399C20.1096 13.5851 20.1096 13.7578 19.9875 13.803L19.1834 14.1005C19.145 14.1147 19.1147 14.145 19.1005 14.1834L18.803 14.9875C18.7578 15.1096 18.5851 15.1096 18.5399 14.9875L18.2424 14.1834C18.2282 14.145 18.1979 14.1147 18.1595 14.1005L17.3554 13.803C17.2333 13.7578 17.2333 13.5851 17.3554 13.5399L18.1595 13.2424C18.1979 13.2282 18.2282 13.1979 18.2424 13.1595L18.5399 12.3554Z" fill="#FF3871"/>
<path d="M16.2883 15.5241C16.3138 15.4551 16.4114 15.4551 16.4369 15.5241L16.6051 15.9785C16.6131 16.0002 16.6302 16.0173 16.6519 16.0254L17.1063 16.1935C17.1753 16.2191 17.1753 16.3167 17.1063 16.3422L16.6519 16.5103C16.6302 16.5184 16.6131 16.5355 16.6051 16.5572L16.4369 17.0116C16.4114 17.0806 16.3138 17.0806 16.2883 17.0116L16.1201 16.5572C16.1121 16.5355 16.095 16.5184 16.0733 16.5103L15.6188 16.3422C15.5498 16.3167 15.5498 16.2191 15.6188 16.1935L16.0733 16.0254C16.095 16.0173 16.1121 16.0002 16.1201 15.9785L16.2883 15.5241Z" fill="#FF3871"/>
</svg>
