<svg width="24" height="24" viewBox="0 0 24 24" fill="none" xmlns="http://www.w3.org/2000/svg">
<path d="M13.883 4.6613C14.0801 4.11066 14.8588 4.11066 15.0559 4.6613L16.306 8.15344C16.3672 8.32455 16.5001 8.46038 16.6699 8.52531L20.1054 9.83942C20.6392 10.0436 20.6392 10.7988 20.1054 11.003L16.6699 12.3171C16.5001 12.3821 16.3672 12.5179 16.306 12.689L15.0559 16.1811C14.8588 16.7318 14.0801 16.7318 13.883 16.1811L12.6329 12.689C12.5717 12.5179 12.4387 12.3821 12.269 12.3171L8.8335 11.003C8.29968 10.7988 8.29968 10.0436 8.8335 9.83942L12.269 8.52531C12.4387 8.46038 12.5717 8.32455 12.6329 8.15344L13.883 4.6613Z" fill="#FF3871"/>
<path d="M5.40828 13.8752C5.5961 13.3041 6.4039 13.3041 6.59172 13.8752L6.99127 15.0899C7.04784 15.2619 7.17645 15.4008 7.3436 15.4703L8.61857 16.0011C9.12993 16.214 9.12993 16.9384 8.61857 17.1512L7.3436 17.682C7.17645 17.7516 7.04784 17.8904 6.99127 18.0624L6.59172 19.2772C6.4039 19.8482 5.5961 19.8482 5.40828 19.2772L5.00873 18.0624C4.95216 17.8904 4.82355 17.7516 4.6564 17.682L3.38143 17.1512C2.87007 16.9384 2.87007 16.214 3.38143 16.0011L4.6564 15.4703C4.82355 15.4008 4.95216 15.2619 5.00873 15.0899L5.40828 13.8752Z" fill="#FF5183"/>
<path d="M5.40624 4.87205C5.59002 4.2926 6.40998 4.2926 6.59376 4.87205L6.72434 5.28376C6.77892 5.45584 6.90547 5.59578 7.07121 5.66733L7.67527 5.92811C8.17663 6.14455 8.17663 6.85545 7.67527 7.07189L7.07121 7.33267C6.90547 7.40422 6.77892 7.54416 6.72434 7.71624L6.59376 8.12795C6.40998 8.7074 5.59002 8.7074 5.40624 8.12795L5.27566 7.71624C5.22108 7.54416 5.09453 7.40422 4.92879 7.33267L4.32473 7.07189C3.82337 6.85545 3.82337 6.14455 4.32473 5.92811L4.92879 5.66733C5.09453 5.59578 5.22108 5.45584 5.27566 5.28376L5.40624 4.87205Z" fill="#FFB7CC"/>
</svg>
