<svg width="19" height="18" viewBox="0 0 19 18" fill="none" xmlns="http://www.w3.org/2000/svg">
<path d="M15.6355 1.72266H3C1.89543 1.72266 1 2.61809 1 3.72266V14.9461C1 16.0507 1.89543 16.9461 3 16.9461H15.6355C16.74 16.9461 17.6355 16.0507 17.6355 14.9461V3.72266C17.6355 2.61809 16.74 1.72266 15.6355 1.72266Z" stroke="#BEBEBE" stroke-width="1.5" stroke-miterlimit="10"/>
<path d="M5.76434 0.668591C5.76434 0.299338 5.567 0 5.32358 0C5.08015 0 4.88281 0.299338 4.88281 0.668591V3.61712C4.88281 3.98638 5.08015 4.28571 5.32358 4.28571C5.567 4.28571 5.76434 3.98638 5.76434 3.61712V0.668591Z" fill="#BEBEBE"/>
<path d="M5.32229 6.00014C6.05258 6.00014 6.64459 5.42451 6.64459 4.71443C6.64459 4.00434 6.05258 3.42871 5.32229 3.42871C4.59201 3.42871 4 4.00434 4 4.71443C4 5.42451 4.59201 6.00014 5.32229 6.00014Z" fill="#BEBEBE"/>
<path d="M9.85028 0.668591C9.85028 0.299338 9.65294 0 9.40951 0C9.16609 0 8.96875 0.299338 8.96875 0.668591V3.61712C8.96875 3.98638 9.16609 4.28571 9.40951 4.28571C9.65294 4.28571 9.85028 3.98638 9.85028 3.61712V0.668591Z" fill="#BEBEBE"/>
<path d="M9.40823 6.00014C10.1385 6.00014 10.7305 5.42451 10.7305 4.71443C10.7305 4.00434 10.1385 3.42871 9.40823 3.42871C8.67795 3.42871 8.08594 4.00434 8.08594 4.71443C8.08594 5.42451 8.67795 6.00014 9.40823 6.00014Z" fill="#BEBEBE"/>
<path d="M14.1198 0.668591C14.1198 0.299338 13.9225 0 13.679 0C13.4356 0 13.2383 0.299338 13.2383 0.668591V3.61712C13.2383 3.98638 13.4356 4.28571 13.679 4.28571C13.9225 4.28571 14.1198 3.98638 14.1198 3.61712V0.668591Z" fill="#BEBEBE"/>
<path d="M13.6778 6.00014C14.408 6.00014 15.0001 5.42451 15.0001 4.71443C15.0001 4.00434 14.408 3.42871 13.6778 3.42871C12.9475 3.42871 12.3555 4.00434 12.3555 4.71443C12.3555 5.42451 12.9475 6.00014 13.6778 6.00014Z" fill="#BEBEBE"/>
</svg>
