<svg width="41" height="44" viewBox="0 0 41 44" fill="none" xmlns="http://www.w3.org/2000/svg">
<path d="M17.8955 2.40332C26.1369 2.83023 32.705 9.39414 32.707 17.3135V20.3896C32.707 21.9362 32.4545 23.43 31.9902 24.8369V24.8389C31.9717 24.896 31.9463 24.9759 31.9316 25.0693C31.6674 26.5976 31.4569 28.4625 31.6309 29.9893C31.7178 30.7521 31.9055 31.4794 32.2705 32.042C32.6498 32.6265 33.2172 33.0236 33.9912 33.0879H33.9961C34.4663 33.1287 34.6059 33.6128 34.3506 33.8867C32.3343 36.0451 27.7389 39.0429 18.1016 37.7646L18.0684 37.7607H18.0527C17.8803 37.7411 17.7066 37.7411 17.5342 37.7607H17.5176L17.4854 37.7646C7.84758 39.043 3.24945 36.0449 1.23535 33.8867C0.979924 33.6123 1.12078 33.1272 1.59277 33.0879C2.36683 33.023 2.93432 32.6257 3.31348 32.041C3.6783 31.4783 3.8663 30.7511 3.95312 29.9883C4.12714 28.4592 3.91516 26.591 3.65137 25.0615L3.64941 25.0508L3.59473 24.8389L3.59375 24.8369C3.12954 23.43 2.87793 21.9361 2.87793 20.3896V17.3135C2.87793 9.39427 9.4453 2.83029 17.6846 2.40332H17.8955Z" fill="#FFB7CC" stroke="#575757"/>
<path d="M14.9922 30.1279L14.6543 30.0127C10.7038 28.6567 7.98047 24.8385 7.98047 20.3105C7.98051 19.1496 8.17266 18.0349 8.52148 16.9951C8.67948 16.9768 8.88646 16.949 9.13477 16.8984C9.72649 16.778 10.5556 16.5433 11.5322 16.0869C13.3705 15.2279 15.7137 13.59 17.9746 10.4795C18.0598 10.6081 18.1577 10.7525 18.2686 10.9092C18.7244 11.5538 19.3976 12.415 20.2666 13.2812C21.9325 14.9419 24.3718 16.6706 27.4219 16.8447C27.8043 17.9274 28.0166 19.0922 28.0166 20.3086C28.0166 24.7987 25.188 28.6042 21.2637 29.9863L20.9297 30.1035V32.6504C20.9141 32.6727 20.8964 32.7001 20.873 32.7295C20.7817 32.8445 20.6282 33.0081 20.3945 33.1748C19.9331 33.504 19.1269 33.8681 17.793 33.8682C16.4572 33.8682 15.7523 33.5039 15.3906 33.1992C15.2062 33.0439 15.0982 32.8935 15.0381 32.79C15.0168 32.7533 15.0027 32.7215 14.9922 32.6982V30.1279Z" fill="#FFF1F5" stroke="#575757"/>
<path d="M6.80664 32.959H28.7803C29.8363 32.9591 30.6609 33.78 30.6611 34.7549V41.6211C30.6611 42.5962 29.8365 43.4179 28.7803 43.418H6.80664C5.75056 43.4178 4.92578 42.5961 4.92578 41.6211V34.7549C4.92601 33.7801 5.75071 32.9592 6.80664 32.959Z" fill="#FFEAF0" stroke="#575757"/>
<path d="M5.5 38.188H23.642C24.1693 38.188 24.5969 38.6155 24.5969 39.1429C24.5969 39.6702 24.1693 40.0977 23.642 40.0977H5.5V38.188Z" fill="#FFD1DE"/>
<ellipse cx="27.4627" cy="39.1429" rx="0.954843" ry="0.954879" fill="#FFD1DE"/>
<mask id="path-6-inside-1_535_3527" fill="white">
<ellipse cx="13.0173" cy="20.6186" rx="0.954843" ry="1.52781"/>
</mask>
<ellipse cx="13.0173" cy="20.6186" rx="0.954843" ry="1.52781" fill="#575757"/>
<path d="M13.9722 20.6186H11.8889C11.8889 20.7125 11.8609 20.6987 11.9258 20.5948C11.9724 20.5203 12.3035 20.0631 13.0173 20.0631V22.1464V24.2298C14.2586 24.2298 15.0671 23.4305 15.4592 22.8031C15.8697 22.1463 16.0555 21.3685 16.0555 20.6186H13.9722ZM13.0173 22.1464V20.0631C13.7312 20.0631 14.0623 20.5203 14.1088 20.5948C14.1738 20.6987 14.1458 20.7125 14.1458 20.6186H12.0625H9.97917C9.97917 21.3685 10.165 22.1463 10.5755 22.8031C10.9676 23.4305 11.7761 24.2298 13.0173 24.2298V22.1464ZM12.0625 20.6186H14.1458C14.1458 20.5247 14.1738 20.5386 14.1088 20.6424C14.0623 20.7169 13.7312 21.1742 13.0173 21.1742V19.0908V17.0075C11.7761 17.0075 10.9676 17.8067 10.5755 18.4342C10.165 19.091 9.97917 19.8688 9.97917 20.6186H12.0625ZM13.0173 19.0908V21.1742C12.3035 21.1742 11.9724 20.7169 11.9258 20.6424C11.8609 20.5386 11.8889 20.5247 11.8889 20.6186H13.9722H16.0555C16.0555 19.8688 15.8697 19.091 15.4592 18.4342C15.0671 17.8067 14.2586 17.0075 13.0173 17.0075V19.0908Z" fill="#575757" mask="url(#path-6-inside-1_535_3527)"/>
<mask id="path-8-inside-2_535_3527" fill="white">
<ellipse cx="22.5681" cy="20.6186" rx="0.954843" ry="1.52781"/>
</mask>
<ellipse cx="22.5681" cy="20.6186" rx="0.954843" ry="1.52781" fill="#575757"/>
<path d="M23.523 20.6186H21.4396C21.4396 20.7125 21.4117 20.6987 21.4766 20.5948C21.5232 20.5203 21.8542 20.0631 22.5681 20.0631V22.1464V24.2298C23.8093 24.2298 24.6178 23.4305 25.01 22.8031C25.4205 22.1463 25.6063 21.3685 25.6063 20.6186H23.523ZM22.5681 22.1464V20.0631C23.282 20.0631 23.6131 20.5203 23.6596 20.5948C23.7246 20.6987 23.6966 20.7125 23.6966 20.6186H21.6133H19.5299C19.5299 21.3685 19.7158 22.1463 20.1263 22.8031C20.5184 23.4305 21.3269 24.2298 22.5681 24.2298V22.1464ZM21.6133 20.6186H23.6966C23.6966 20.5247 23.7246 20.5386 23.6596 20.6424C23.6131 20.7169 23.282 21.1742 22.5681 21.1742V19.0908V17.0075C21.3269 17.0075 20.5184 17.8067 20.1263 18.4342C19.7158 19.091 19.5299 19.8688 19.5299 20.6186H21.6133ZM22.5681 19.0908V21.1742C21.8542 21.1742 21.5232 20.7169 21.4766 20.6424C21.4117 20.5386 21.4396 20.5247 21.4396 20.6186H23.523H25.6063C25.6063 19.8688 25.4205 19.091 25.01 18.4342C24.6178 17.8067 23.8093 17.0075 22.5681 17.0075V19.0908Z" fill="#575757" mask="url(#path-8-inside-2_535_3527)"/>
<path d="M15.8828 24.8203C15.8828 24.8203 17.6699 26.9688 20.0841 24.8203" stroke="#575757" stroke-miterlimit="10" stroke-linecap="round"/>
<path d="M34.2174 1.38046C34.3717 0.963466 34.9615 0.963468 35.1158 1.38046L35.7155 3.00131C35.764 3.1324 35.8674 3.23577 35.9985 3.28428L37.6193 3.88407C38.0363 4.03837 38.0363 4.62813 37.6193 4.78243L35.9985 5.38222C35.8674 5.43073 35.764 5.53409 35.7155 5.66519L35.1158 7.28604C34.9615 7.70303 34.3717 7.70303 34.2174 7.28604L33.6177 5.66519C33.5691 5.53409 33.4658 5.43073 33.3347 5.38222L31.7139 4.78243C31.2969 4.62813 31.2969 4.03837 31.7139 3.88407L33.3347 3.28428C33.4658 3.23577 33.5691 3.1324 33.6177 3.00131L34.2174 1.38046Z" fill="#FFD1DE"/>
<path d="M37.3437 9.71395C37.498 9.29696 38.0878 9.29696 38.2421 9.71395L38.5605 10.5745C38.609 10.7056 38.7124 10.8089 38.8435 10.8574L39.704 11.1759C40.121 11.3302 40.121 11.9199 39.704 12.0742L38.8435 12.3927C38.7124 12.4412 38.609 12.5446 38.5605 12.6757L38.2421 13.5362C38.0878 13.9532 37.498 13.9532 37.3437 13.5362L37.0253 12.6757C36.9768 12.5446 36.8734 12.4412 36.7423 12.3927L35.8818 12.0742C35.4648 11.9199 35.4648 11.3302 35.8818 11.1759L36.7423 10.8574C36.8734 10.8089 36.9768 10.7056 37.0253 10.5745L37.3437 9.71395Z" fill="#FFEAF0"/>
</svg>
