<svg width="47" height="35" viewBox="0 0 47 35" fill="none" xmlns="http://www.w3.org/2000/svg">
<path d="M11.9822 17.9794C11.6642 16.5944 10.308 15.7352 8.95318 16.0603C7.59833 16.3854 6.75781 17.7717 7.07584 19.1567L10.0614 32.1586C10.3794 33.5436 11.7355 34.4028 13.0904 34.0777C14.4452 33.7526 15.2857 32.3663 14.9677 30.9813L11.9822 17.9794Z" fill="#FFB7CC" stroke="#575757" stroke-miterlimit="10"/>
<path d="M29.7217 3.4165V22.1663L3.67839 17.0029C1.85872 16.6415 0.554688 15.1065 0.554688 13.3281C0.554688 11.0417 2.22116 9.07007 4.55273 8.59059L29.7217 3.4165Z" fill="#FFF1F5" stroke="#575757" stroke-miterlimit="10"/>
<path d="M13.547 5.5H6.86977C5.83713 5.5 5 6.37323 5 7.45042V18.1328C5 19.2099 5.83713 20.0832 6.86977 20.0832H13.547C14.5797 20.0832 15.4168 19.2099 15.4168 18.1328V7.45042C15.4168 6.37323 14.5797 5.5 13.547 5.5Z" fill="#FFB7CC" stroke="#575757" stroke-miterlimit="10"/>
<path d="M30.708 0.833496C31.8351 0.833496 32.6669 1.82615 32.667 2.94385V22.6392C32.667 23.7569 31.8351 24.7495 30.708 24.7495C29.5811 24.7493 28.75 23.7568 28.75 22.6392V2.94385C28.7501 1.82626 29.5811 0.833698 30.708 0.833496Z" fill="#FFB7CC" stroke="#575757" stroke-miterlimit="10"/>
<path d="M11.8 5.5H8V20.0832H11.8V5.5Z" fill="#FFF1F5" stroke="#575757" stroke-miterlimit="10"/>
<path d="M41.2149 7.49186L41.9963 9.77896C42.097 10.0723 42.3852 10.2733 42.7116 10.2733H45.2466C45.9759 10.2733 46.278 11.1565 45.6876 11.5651L43.6388 12.9789C43.3749 13.1602 43.2638 13.4831 43.3645 13.7764L44.1458 16.0635C44.3715 16.7193 43.5798 17.2664 42.9894 16.8611L40.9406 15.4473C40.6767 15.266 40.319 15.266 40.0585 15.4473L38.0097 16.8611C37.4194 17.2664 36.6276 16.7193 36.8533 16.0635L37.6347 13.7764C37.7354 13.4831 37.6242 13.1602 37.3603 12.9789L35.3115 11.5651C34.7211 11.1598 35.0267 10.2733 35.7525 10.2733H38.2875C38.6139 10.2733 38.9022 10.0756 39.0029 9.77896L39.7842 7.49186C40.0099 6.83605 40.9892 6.83605 41.2149 7.49186Z" fill="#FF5183" stroke="#575757" stroke-miterlimit="10"/>
</svg>
