<svg width="40" height="39" viewBox="0 0 40 39" fill="none" xmlns="http://www.w3.org/2000/svg">
<path d="M0.977539 0.509766C3.39776 0.379674 5.70636 1.59117 7.49414 2.9248C9.29319 4.26691 10.6436 5.79119 11.166 6.41602C11.3483 6.63321 11.5374 6.84412 11.7334 7.04883L18.9717 14.5918L19.3057 14.9395L18.9697 15.2861L17.2725 17.0352C17.1522 17.1588 17.1473 17.3669 17.2646 17.4971L23.3379 24.1982L25.3535 26.3555C25.5082 26.5204 25.6831 26.6737 25.873 26.8213L26.1543 27.0518C27.5215 28.2463 28.3417 30.0251 28.3418 32.0049C28.3418 35.6784 25.366 38.6663 21.7275 38.4932C18.4645 38.3375 15.8474 35.6034 15.7168 32.2725C15.5979 29.2366 17.5101 26.6297 20.1865 25.792L20.1895 25.7559C20.1919 25.721 20.1788 25.6895 20.1602 25.6699L7.22656 12.1562V12.1553C7.06433 11.9856 6.88953 11.8242 6.70215 11.6543C6.51839 11.4877 6.31834 11.3099 6.12793 11.1221V11.1211C3.15783 8.19612 1.74584 5.69684 1.08008 3.90137C0.747525 3.0045 0.601885 2.28696 0.541016 1.78418C0.480067 1.28055 0.504833 0.981931 0.504883 1.00879V0.535156L0.977539 0.509766ZM22.1191 28.2842C20.162 28.2842 18.5488 29.9243 18.5488 31.9795C18.5489 34.0346 20.1621 35.6748 22.1191 35.6748C24.076 35.6745 25.6884 34.0344 25.6885 31.9795C25.6885 29.9245 24.076 28.2844 22.1191 28.2842Z" fill="#FFB7CC" stroke="#575757"/>
<path d="M21.8203 15.6455L26.6895 20.4902H26.6904C26.7699 20.5695 26.8829 20.5837 26.9766 20.5342C27.7405 17.4656 30.6449 15.292 33.9629 15.7393C36.6009 16.0949 38.7194 18.1457 39.2715 20.7754H39.2881L39.3496 21.2051C39.914 25.2026 36.9184 28.6699 33.1025 28.6699C31.4917 28.6698 30.0237 28.0478 28.9102 27.0303L28.9189 27.0195L28.8994 27.0322L19.6465 17.8037L19.29 17.4473L19.6484 17.0938L21.1162 15.6445L21.4688 15.2959L21.8203 15.6455ZM33.0449 18.5293C31.0882 18.5296 29.4758 20.1688 29.4756 22.2236C29.4756 24.2786 31.088 25.9187 33.0449 25.9189C35.002 25.9189 36.6152 24.2788 36.6152 22.2236C36.615 20.1687 35.0019 18.5293 33.0449 18.5293Z" fill="#FF5183" stroke="#575757"/>
</svg>
