<svg width="106" height="18" viewBox="0 0 106 18" fill="none" xmlns="http://www.w3.org/2000/svg">
<path d="M9.8103 17.6831H1.2075C0.542035 17.6831 0 17.141 0 16.4756V14.608C0 13.9426 0.542035 13.4005 1.2075 13.4005H9.8103C10.1055 13.4005 10.3577 13.2986 10.567 13.0839C10.7763 12.8746 10.8836 12.6224 10.8836 12.3272C10.8836 12.0321 10.7763 11.8228 10.567 11.7315C10.3577 11.6349 10.1055 11.592 9.8103 11.592H5.34522C4.59925 11.592 3.90158 11.4525 3.25221 11.1681C2.60284 10.8836 2.03397 10.4972 1.55634 10.0142C1.07334 9.52589 0.692302 8.95703 0.418601 8.30768C0.139534 7.65833 0 6.96068 0 6.21472C0 5.46877 0.139534 4.77649 0.418601 4.12177C0.697669 3.47241 1.0787 2.90355 1.55634 2.42593C2.03934 1.94294 2.60284 1.56191 3.25221 1.28822C3.90158 1.00916 4.59925 0.869629 5.34522 0.869629H12.8317C13.4972 0.869629 14.0392 1.41165 14.0392 2.0771V3.94467C14.0392 4.61012 13.4972 5.15214 12.8317 5.15214H5.34522C5.05005 5.15214 4.79781 5.25947 4.58851 5.46877C4.37921 5.67806 4.27188 5.93029 4.27188 6.22546C4.27188 6.52062 4.37385 6.78894 4.58851 7.00361C4.79781 7.21827 5.05005 7.3256 5.34522 7.3256H9.8103C10.5455 7.3256 11.2378 7.44903 11.8872 7.69589C12.5366 7.94275 13.1054 8.28622 13.5831 8.72627C14.0661 9.16633 14.4471 9.69762 14.7315 10.3148C15.016 10.9319 15.1555 11.6081 15.1555 12.3433C15.1555 13.0786 15.016 13.7816 14.7315 14.4256C14.4471 15.0695 14.0661 15.6384 13.5831 16.1214C13.1001 16.6098 12.5366 16.9908 11.8872 17.2698C11.2378 17.5489 10.5455 17.6884 9.8103 17.6884V17.6831Z" fill="#FF3871"/>
<path d="M23.5987 13.5673C23.7651 13.621 23.9315 13.6532 24.1032 13.6693C24.2696 13.6854 24.4359 13.6908 24.6077 13.6908C25.0263 13.6908 25.4288 13.6317 25.8206 13.519C26.207 13.4063 26.5719 13.24 26.9154 13.0253C27.2535 12.8106 27.5594 12.5477 27.8277 12.2418V12.231C28.2517 11.7481 28.9923 11.7212 29.4377 12.172L30.876 13.6156C31.3268 14.0718 31.3321 14.8016 30.8921 15.2739C30.6881 15.4939 30.4735 15.6978 30.2481 15.8964C29.7275 16.3472 29.1694 16.7282 28.5683 17.0449C27.9672 17.3615 27.334 17.5976 26.6685 17.7586C26.003 17.9196 25.3161 18.0001 24.6184 18.0001C23.4324 18.0001 22.3215 17.7801 21.275 17.34C20.2338 16.9 19.3215 16.2882 18.538 15.4993C17.7544 14.7158 17.1426 13.7766 16.6918 12.6926C16.241 11.6085 16.0156 10.4171 16.0156 9.11307C16.0156 7.809 16.241 6.56396 16.6918 5.46382C17.1426 4.36367 17.7598 3.42452 18.538 2.65174C19.3161 1.87359 20.2285 1.27253 21.275 0.843206C22.3161 0.413882 23.4324 0.199219 24.6184 0.199219C25.3215 0.199219 26.0084 0.285084 26.6792 0.451448C27.3501 0.617811 27.9887 0.859306 28.5898 1.17593C29.1908 1.49256 29.7543 1.87359 30.2803 2.32974C31.1389 3.0757 31.2409 4.36904 30.5164 5.24915L23.6148 13.5673H23.5987ZM25.7991 4.7125C25.6005 4.63736 25.402 4.59443 25.2088 4.57296C25.0156 4.5515 24.8116 4.54077 24.6023 4.54077C24.0173 4.54077 23.4646 4.6481 22.944 4.86276C22.4234 5.07742 21.9726 5.38332 21.5916 5.78044C21.2106 6.17757 20.91 6.66056 20.69 7.21868C20.47 7.7768 20.3573 8.41006 20.3573 9.11307C20.3573 9.2687 20.3626 9.45117 20.3787 9.64973C20.3948 9.84829 20.4217 10.0522 20.4592 10.2562C20.4968 10.4601 20.5397 10.6586 20.5934 10.8465C20.6471 11.0343 20.7115 11.2007 20.7973 11.3509L25.7991 4.71786V4.7125Z" fill="#FF3871"/>
<path d="M48.8799 9.11796C48.8799 10.3737 48.6545 11.549 48.2037 12.6331C47.7529 13.7171 47.1411 14.6562 46.3629 15.4451C45.5848 16.2394 44.6778 16.8619 43.6367 17.3181C42.5955 17.7742 41.4739 17.9996 40.2825 17.9996C39.0911 17.9996 37.9855 17.7742 36.939 17.3181C35.8979 16.8619 34.9856 16.2394 34.202 15.4451C33.4185 14.6562 32.8067 13.7171 32.3559 12.6331C31.9051 11.549 31.6797 10.3791 31.6797 9.11796C31.6797 7.85682 31.9051 6.65471 32.3559 5.56529C32.8067 4.47588 33.4239 3.53674 34.202 2.74248C34.9802 1.9536 35.8925 1.33108 36.939 0.880289C37.9802 0.429498 39.0964 0.204102 40.2825 0.204102C41.4685 0.204102 42.5955 0.418765 43.6367 0.842724C44.6778 1.26668 45.5901 1.8731 46.3629 2.65125C47.1411 3.43477 47.7529 4.36855 48.2037 5.46333C48.6545 6.55811 48.8799 7.77632 48.8799 9.11796ZM44.5597 9.11796C44.5597 8.42567 44.447 7.79778 44.2216 7.23966C43.9962 6.68154 43.6903 6.19855 43.3039 5.79069C42.9175 5.3882 42.4614 5.07694 41.9462 4.86228C41.4256 4.64761 40.8728 4.54028 40.2878 4.54028C39.7029 4.54028 39.1501 4.64761 38.6295 4.86228C38.109 5.07694 37.6582 5.3882 37.2771 5.79069C36.8961 6.19318 36.5956 6.67617 36.3755 7.23966C36.1555 7.79778 36.0428 8.42567 36.0428 9.11796C36.0428 9.76731 36.1555 10.3684 36.3755 10.9265C36.5956 11.4846 36.8961 11.9622 37.2771 12.3755C37.6582 12.7833 38.109 13.1053 38.6295 13.3414C39.1501 13.5776 39.7029 13.6956 40.2878 13.6956C40.8728 13.6956 41.4256 13.5829 41.9462 13.3629C42.4667 13.1429 42.9175 12.8316 43.3039 12.4345C43.6903 12.0374 43.9962 11.5544 44.2216 10.9855C44.447 10.422 44.5597 9.79414 44.5597 9.11259V9.11796Z" fill="#FF3871"/>
<path d="M72.4834 17.6828H67.9862V5.22703C67.9862 4.98553 67.9271 4.75477 67.8037 4.54548C67.6856 4.33618 67.5193 4.14835 67.3153 3.99272C67.1114 3.83709 66.8699 3.71366 66.6016 3.62243C66.3279 3.5312 66.0381 3.48826 65.7214 3.48826C65.4048 3.48826 65.115 3.5312 64.8413 3.62243C64.5676 3.71366 64.3315 3.83709 64.1275 3.99272C63.9236 4.14835 63.7626 4.33618 63.6499 4.54548C63.5318 4.75477 63.4782 4.98553 63.4782 5.22703V17.6828H58.9648V5.22703C58.9648 4.98553 58.9057 4.75477 58.793 4.54548C58.675 4.33618 58.5193 4.14835 58.3154 3.99272C58.1115 3.83709 57.87 3.71366 57.6016 3.62243C57.3279 3.5312 57.0381 3.48826 56.7215 3.48826C56.4049 3.48826 56.1151 3.5312 55.8414 3.62243C55.5677 3.71366 55.3315 3.83709 55.1276 3.99272C54.9237 4.14835 54.7627 4.33618 54.65 4.54548C54.5319 4.75477 54.4782 4.98553 54.4782 5.22703V17.6828H49.9648V5.22703C49.9648 4.50791 50.1419 3.82636 50.4908 3.18774C50.8396 2.54912 51.3226 1.99636 51.9398 1.5241C52.557 1.05185 53.2707 0.676186 54.0918 0.407858C54.9129 0.134163 55.7931 0 56.7269 0C57.5641 0 58.3744 0.118063 59.1472 0.348825C59.9254 0.579587 60.6177 0.912314 61.2402 1.35237C61.8574 0.912314 62.5551 0.579587 63.3225 0.348825C64.09 0.118063 64.895 0 65.7375 0C66.6713 0 67.5461 0.134163 68.3726 0.407858C69.1937 0.681552 69.9128 1.05185 70.5246 1.5241C71.1364 1.99636 71.6194 2.55448 71.9736 3.18774C72.3224 3.82636 72.4995 4.50254 72.4995 5.22703V17.6828H72.4834Z" fill="#FF3871"/>
<path d="M83.697 17.6855H75.0942C74.4288 17.6855 73.8867 17.1435 73.8867 16.478V14.6105C73.8867 13.945 74.4288 13.403 75.0942 13.403H83.697C83.9922 13.403 84.2444 13.301 84.4537 13.0864C84.663 12.8771 84.7704 12.6248 84.7704 12.3297C84.7704 12.0345 84.663 11.8252 84.4537 11.734C84.2444 11.6374 83.9922 11.5945 83.697 11.5945H79.2319C78.486 11.5945 77.7883 11.4549 77.1389 11.1705C76.4896 10.8861 75.9207 10.4997 75.4431 10.0167C74.9601 9.52833 74.579 8.95947 74.3053 8.31012C74.0263 7.66077 73.8867 6.96312 73.8867 6.21717C73.8867 5.47121 74.0263 4.77893 74.3053 4.12421C74.5844 3.47485 74.9654 2.906 75.4431 2.42837C75.9261 1.94538 76.4896 1.56436 77.1389 1.29066C77.7883 1.0116 78.486 0.87207 79.2319 0.87207H86.7185C87.3839 0.87207 87.926 1.41409 87.926 2.07955V3.94711C87.926 4.61256 87.3839 5.15458 86.7185 5.15458H79.2319C78.9368 5.15458 78.6845 5.26191 78.4752 5.47121C78.2659 5.68051 78.1586 5.93274 78.1586 6.2279C78.1586 6.52306 78.2606 6.79138 78.4752 7.00605C78.6845 7.22071 78.9368 7.32804 79.2319 7.32804H83.697C84.4323 7.32804 85.1246 7.45147 85.7739 7.69833C86.4233 7.9452 86.9922 8.28866 87.4698 8.72872C87.9528 9.16877 88.3338 9.70006 88.6183 10.3172C88.9027 10.9344 89.0422 11.6106 89.0422 12.3458C89.0422 13.081 88.9027 13.784 88.6183 14.428C88.3338 15.072 87.9528 15.6408 87.4698 16.1238C86.9868 16.6122 86.4233 16.9932 85.7739 17.2723C85.1246 17.5513 84.4323 17.6909 83.697 17.6909V17.6855Z" fill="#FF3871"/>
<path d="M97.6964 13.5673C97.8628 13.621 98.0291 13.6532 98.2009 13.6693C98.3672 13.6854 98.5336 13.6908 98.7053 13.6908C99.1239 13.6908 99.5264 13.6317 99.9182 13.519C100.305 13.4063 100.67 13.24 101.013 13.0253C101.351 12.8106 101.657 12.5477 101.925 12.2418V12.231C102.349 11.7481 103.09 11.7212 103.535 12.172L104.974 13.6156C105.424 14.0718 105.43 14.8016 104.99 15.2739C104.786 15.4939 104.571 15.6978 104.346 15.8964C103.825 16.3472 103.267 16.7282 102.666 17.0449C102.065 17.3615 101.432 17.5976 100.766 17.7586C100.101 17.9196 99.4137 18.0001 98.7161 18.0001C97.53 18.0001 96.4191 17.7801 95.3726 17.34C94.3315 16.9 93.4192 16.2882 92.6356 15.4993C91.8521 14.7158 91.2403 13.7766 90.7895 12.6926C90.3387 11.6085 90.1133 10.4171 90.1133 9.11307C90.1133 7.809 90.3387 6.56396 90.7895 5.46382C91.2403 4.36367 91.8575 3.42452 92.6356 2.65174C93.4138 1.87359 94.3261 1.27253 95.3726 0.843206C96.4138 0.413882 97.53 0.199219 98.7161 0.199219C99.4191 0.199219 100.106 0.285084 100.777 0.451448C101.448 0.617811 102.086 0.859306 102.687 1.17593C103.288 1.49256 103.852 1.87359 104.378 2.32974C105.237 3.0757 105.339 4.36904 104.614 5.24915L97.7125 13.5673H97.6964ZM99.8967 4.7125C99.6982 4.63736 99.4996 4.59443 99.3064 4.57296C99.1132 4.5515 98.9093 4.54077 98.7 4.54077C98.115 4.54077 97.5622 4.6481 97.0417 4.86276C96.5211 5.07742 96.0703 5.38332 95.6893 5.78044C95.3082 6.17757 95.0077 6.66056 94.7877 7.21868C94.5676 7.7768 94.4549 8.41006 94.4549 9.11307C94.4549 9.2687 94.4603 9.45117 94.4764 9.64973C94.4925 9.84829 94.5193 10.0522 94.5569 10.2562C94.5945 10.4601 94.6374 10.6586 94.6911 10.8465C94.7447 11.0343 94.8091 11.2007 94.895 11.3509L99.8967 4.71786V4.7125Z" fill="#FF3871"/>
</svg>
