<svg width="20" height="20" viewBox="0 0 24 24" fill="none" xmlns="http://www.w3.org/2000/svg">
<path d="M16.1 12.6001L14.65 11.1501C14.8 10.3668 14.575 9.63343 13.975 8.9501C13.375 8.26676 12.6 8.0001 11.65 8.1501L10.2 6.7001C10.4833 6.56676 10.7708 6.46676 11.0625 6.4001C11.3542 6.33343 11.6667 6.3001 12 6.3001C13.25 6.3001 14.3125 6.7376 15.1875 7.6126C16.0625 8.4876 16.5 9.5501 16.5 10.8001C16.5 11.1334 16.4667 11.4459 16.4 11.7376C16.3333 12.0293 16.2333 12.3168 16.1 12.6001ZM19.3 15.7501L17.85 14.3501C18.4833 13.8668 19.0458 13.3376 19.5375 12.7626C20.0292 12.1876 20.45 11.5334 20.8 10.8001C19.9667 9.11677 18.7708 7.77926 17.2125 6.7876C15.6542 5.79593 13.9167 5.3001 12 5.3001C11.5167 5.3001 11.0417 5.33343 10.575 5.4001C10.1083 5.46676 9.65 5.56676 9.2 5.7001L7.65 4.1501C8.33333 3.86676 9.03333 3.65426 9.75 3.5126C10.4667 3.37093 11.2167 3.3001 12 3.3001C14.5167 3.3001 16.7583 3.99593 18.725 5.3876C20.6917 6.77926 22.1167 8.58343 23 10.8001C22.6167 11.7834 22.1125 12.6959 21.4875 13.5376C20.8625 14.3793 20.1333 15.1168 19.3 15.7501ZM19.8 21.9001L15.6 17.7501C15.0167 17.9334 14.4292 18.0709 13.8375 18.1626C13.2458 18.2543 12.6333 18.3001 12 18.3001C9.48333 18.3001 7.24167 17.6043 5.275 16.2126C3.30833 14.8209 1.88333 13.0168 1 10.8001C1.35 9.91677 1.79167 9.09593 2.325 8.3376C2.85833 7.57926 3.46667 6.9001 4.15 6.3001L1.4 3.5001L2.8 2.1001L21.2 20.5001L19.8 21.9001ZM5.55 7.7001C5.06667 8.13343 4.625 8.60843 4.225 9.1251C3.825 9.64177 3.48333 10.2001 3.2 10.8001C4.03333 12.4834 5.22917 13.8209 6.7875 14.8126C8.34583 15.8043 10.0833 16.3001 12 16.3001C12.3333 16.3001 12.6583 16.2793 12.975 16.2376C13.2917 16.1959 13.6167 16.1501 13.95 16.1001L13.05 15.1501C12.8667 15.2001 12.6917 15.2376 12.525 15.2626C12.3583 15.2876 12.1833 15.3001 12 15.3001C10.75 15.3001 9.6875 14.8626 8.8125 13.9876C7.9375 13.1126 7.5 12.0501 7.5 10.8001C7.5 10.6168 7.5125 10.4418 7.5375 10.2751C7.5625 10.1084 7.6 9.93343 7.65 9.7501L5.55 7.7001Z" fill="#8E8E8E"/>
</svg>
