<svg width="64" height="64" viewBox="0 0 64 64" fill="none" xmlns="http://www.w3.org/2000/svg">
<path d="M31.9999 5.33337V10.6667M45.3332 8.90671L42.6666 13.5254M55.0932 18.6667L50.4746 21.3334M58.6666 32H53.3332M55.0932 45.3334L50.4746 42.6667M45.3332 55.0934L42.6666 50.4747M31.9999 58.6667V53.3334M18.6666 55.0934L21.3333 50.4747M8.90658 45.3334L13.5253 42.6667M5.33325 32H10.6666M8.90658 18.6667L13.5253 21.3334M18.6666 8.90671L21.3333 13.5254" stroke="#787878" stroke-width="6.4" stroke-linecap="round" stroke-linejoin="round"/>
<path d="M27.3496 32.6113V33.4805H23.9414V35.0039H22.8672V33.4805H19.2832V32.6113H27.3496ZM26.4609 35.8145V36.6934H20.2598V34.2617H21.334V35.8145H26.4609ZM21.4121 28.3242V29.3203H25.2207V28.3242H26.2949V31.918H20.3379V28.3242H21.4121ZM21.4121 31.0586H25.2207V30.1309H21.4121V31.0586ZM31.0887 29.4375C31.0887 30.5703 31.8016 31.6543 33.159 32.0938L32.573 32.9629C31.616 32.626 30.9324 31.957 30.5613 31.1074C30.1658 32.0352 29.448 32.7627 28.4324 33.1289L27.8465 32.2598C29.282 31.7812 29.9949 30.6289 29.9949 29.3691V28.5H31.0887V29.4375ZM35.2781 33.7148V36.8691H34.1941V34.5742H29.2625V33.7148H35.2781ZM35.2781 28.041V33.2852H34.1941V30.6484H32.4363V29.7598H34.1941V28.041H35.2781ZM44.525 32.0938V32.9727H41.0289V33.7051C42.6109 33.8125 43.5387 34.3594 43.5484 35.2773C43.5387 36.293 42.3961 36.8594 40.4918 36.8594C38.568 36.8594 37.4156 36.293 37.4156 35.2773C37.4156 34.3594 38.3531 33.8076 39.9547 33.7051V32.9727H36.4781V32.0938H44.525ZM40.4918 34.5254C39.2027 34.5352 38.5094 34.7891 38.5191 35.2773C38.5094 35.7656 39.2027 36.0293 40.4918 36.0293C41.7516 36.0293 42.4547 35.7656 42.4645 35.2773C42.4547 34.7891 41.7516 34.5352 40.4918 34.5254ZM43.8023 28.4316V29.3008H41.2633C41.4342 30.0283 42.4889 30.6826 44.1441 30.834L43.7633 31.6934C42.1617 31.5322 40.9703 30.8926 40.4918 29.9941C40.0133 30.8877 38.8414 31.5322 37.2398 31.6934L36.8687 30.834C38.4898 30.6826 39.5445 30.0186 39.7301 29.3008H37.2105V28.4316H43.8023Z" fill="#787878"/>
</svg>
