<svg width="17" height="18" viewBox="0 0 17 18" fill="none" xmlns="http://www.w3.org/2000/svg">
<path d="M7.63281 17.25C7.63281 17.4489 7.55873 17.6397 7.42687 17.7803C7.29501 17.921 7.11617 18 6.92969 18H1.30469C1.11821 18 0.939365 17.921 0.807503 17.7803C0.675642 17.6397 0.601562 17.4489 0.601562 17.25V0.75C0.601562 0.551088 0.675642 0.360322 0.807503 0.21967C0.939365 0.0790178 1.11821 0 1.30469 0H6.92969C7.11617 0 7.29501 0.0790178 7.42687 0.21967C7.55873 0.360322 7.63281 0.551088 7.63281 0.75C7.63281 0.948912 7.55873 1.13968 7.42687 1.28033C7.29501 1.42098 7.11617 1.5 6.92969 1.5H2.00781V16.5H6.92969C7.11617 16.5 7.29501 16.579 7.42687 16.7197C7.55873 16.8603 7.63281 17.0511 7.63281 17.25ZM15.8169 8.61011L12.3013 4.86011C12.1693 4.71937 11.9904 4.64031 11.8038 4.64031C11.6172 4.64031 11.4383 4.71937 11.3064 4.86011C11.1744 5.00084 11.1003 5.19171 11.1003 5.39073C11.1003 5.58975 11.1744 5.78063 11.3064 5.92136L13.6223 8.39073H5.47569C5.28921 8.39073 5.11037 8.46975 4.97851 8.6104C4.84665 8.75105 4.77257 8.94182 4.77257 9.14073C4.77257 9.33964 4.84665 9.53041 4.97851 9.67106C5.11037 9.81171 5.28921 9.89073 5.47569 9.89073H13.6223L11.3064 12.3601C11.1744 12.5008 11.1003 12.6917 11.1003 12.8907C11.1003 13.0898 11.1744 13.2806 11.3064 13.4214C11.4383 13.5621 11.6172 13.6411 11.8038 13.6411C11.9904 13.6411 12.1693 13.5621 12.3013 13.4214L15.8169 9.67136C15.8823 9.6017 15.9341 9.51898 15.9695 9.42794C16.0049 9.33689 16.0231 9.23929 16.0231 9.14073C16.0231 9.04217 16.0049 8.94457 15.9695 8.85353C15.9341 8.76248 15.8823 8.67976 15.8169 8.61011Z" fill="#BEBEBE"/>
</svg>
