<svg width="199" height="74" viewBox="0 0 199 74" fill="none" xmlns="http://www.w3.org/2000/svg">
<path d="M21.6825 6.625V7.85938H16.7606V14.6875C19.1044 14.6797 20.7216 14.5938 22.5575 14.2344L22.7294 15.4531C20.7138 15.8281 19.0106 15.9219 16.37 15.9219H15.2606V6.625H21.6825ZM26.2606 5.32812V19.3594H24.7763V11.5625H20.8856V10.3281H24.7763V5.32812H26.2606ZM43.8194 5.32812V13.375H42.335V9.1875H39.3819V7.98438H42.335V5.32812H43.8194ZM43.8194 14.0625V19.1562H34.585V14.0625H43.8194ZM36.0538 15.2344V17.9531H42.3663V15.2344H36.0538ZM37.0694 7.45312C37.0694 9.23438 38.3506 10.9375 40.46 11.6094L39.6788 12.7812C38.1163 12.2344 36.9522 11.1562 36.3506 9.78125C35.7256 11.2969 34.5381 12.4688 32.8975 13.0469L32.1163 11.875C34.3194 11.1562 35.585 9.375 35.6006 7.375V5.9375H37.0694V7.45312ZM50.1613 9.15625C50.1613 11.3906 51.0988 13.7812 52.9738 14.9219L52.1456 16.0625C50.8331 15.2734 49.9425 13.875 49.4738 12.25C48.9503 14.0312 47.9894 15.5469 46.63 16.375L45.7081 15.2656C47.6925 14.0781 48.7238 11.6094 48.7238 9.21875V6.60938H50.1613V9.15625ZM57.9425 5.32812V19.3281H56.5206V5.32812H57.9425ZM55.0363 5.59375V18.6406H53.63V11.4844H51.4581V10.25H53.63V5.59375H55.0363ZM70.6438 5.34375V9.84375H72.675V11.0781H70.6438V15.8125H69.1594V5.34375H70.6438ZM68.0031 6.96875V8.17188H59.6594V6.96875H63.0969V5.32812H64.5813V6.96875H68.0031ZM63.8313 8.84375C65.8469 8.84375 67.2219 9.89062 67.2219 11.4844C67.2219 13.0781 65.8469 14.1094 63.8313 14.1094C61.8 14.1094 60.425 13.0781 60.425 11.4844C60.425 9.89062 61.8 8.84375 63.8313 8.84375ZM63.8313 9.98438C62.6438 9.98438 61.8469 10.5625 61.8625 11.4844C61.8469 12.3906 62.6438 12.9531 63.8313 12.9531C65.0188 12.9531 65.8156 12.3906 65.8313 11.4844C65.8156 10.5625 65.0188 9.98438 63.8313 9.98438ZM71.2375 17.8281V19.0312H61.7688V14.9844H63.2531V17.8281H71.2375ZM85.015 6.39062V7.17188C84.9994 8.10938 84.9994 9.5 84.6556 11.3125L83.1869 11.1719C83.4916 9.61719 83.5384 8.49219 83.5619 7.60938H77.9525V6.39062H85.015ZM81.4369 9.53125V12.4219C82.9369 12.375 84.4837 12.2656 85.89 12.0625L85.9837 13.1406C83.0619 13.6562 79.7181 13.7031 77.2494 13.7188L77.1087 12.5156C77.9681 12.5078 78.9447 12.5 79.9681 12.4688V9.53125H81.4369ZM88.2962 5.32812V9.78125H90.2181V11.0312H88.2962V15.8438H86.7806V5.32812H88.2962ZM88.7494 17.8281V19.0312H79.2337V14.8906H80.7181V17.8281H88.7494ZM102.591 5.32812V19.3594H101.107V5.32812H102.591ZM98.31 6.59375V11.7031H93.2788V14.7656C95.5444 14.7578 97.5288 14.6562 99.8725 14.2656L100.013 15.4844C97.5288 15.9062 95.4194 16 92.9506 16H91.7631V10.5156H96.7944V7.79688H91.7475V6.59375H98.31ZM115.621 5.32812V10.9062H117.793V12.1406H115.621V19.3125H114.136V5.32812H115.621ZM111.964 6.79688C111.949 10.8438 110.168 14.4531 105.558 16.7344L104.73 15.5781C108.238 13.8281 110.144 11.2969 110.449 8.03125H105.433V6.79688H111.964ZM133.929 5.32812V12.5625H132.429V5.32812H133.929ZM133.929 13.2031V16.6719H126.132V18H134.414V19.1875H124.679V15.5938H132.461V14.375H124.632V13.2031H133.929ZM130.507 6.25V7.42188H129.164V10.7344C129.843 10.6875 130.515 10.625 131.148 10.5469L131.211 11.625C128.414 12.0469 125.148 12.1406 122.695 12.1406L122.523 10.9531L124.226 10.9375V7.42188H122.898V6.25H130.507ZM125.648 10.9062C126.336 10.8828 127.039 10.8594 127.742 10.8125V7.42188H125.648V10.9062ZM148.849 16.3438V17.5781H136.037V16.3438H139.099V12.6875C137.951 12.0547 137.256 11.0469 137.256 9.79688C137.256 7.59375 139.412 6.14062 142.412 6.14062C145.428 6.14062 147.584 7.59375 147.584 9.79688C147.584 11.0312 146.912 12.0234 145.787 12.6562V16.3438H148.849ZM142.412 7.32812C140.209 7.32812 138.693 8.28125 138.693 9.79688C138.693 11.2969 140.209 12.2812 142.412 12.2812C144.599 12.2812 146.146 11.2969 146.146 9.79688C146.146 8.28125 144.599 7.32812 142.412 7.32812ZM140.568 16.3438H144.287V13.2188C143.717 13.3672 143.084 13.4375 142.412 13.4375C141.756 13.4375 141.131 13.3672 140.568 13.2344V16.3438ZM160.785 5.28125V8.5625H162.832V9.78125H160.785V12.9844H159.301V5.28125H160.785ZM160.785 13.6406V16.8906H153.223V18.0625H161.269V19.1875H151.769V15.8438H159.316V14.75H151.738V13.6406H160.785ZM158.144 6.51562V7.6875H149.801V6.51562H153.238V5.20312H154.723V6.51562H158.144ZM153.973 8.21875C156.019 8.21875 157.363 9.09375 157.363 10.5156C157.363 11.9375 156.019 12.7969 153.973 12.7969C151.91 12.7969 150.566 11.9375 150.566 10.5156C150.566 9.09375 151.91 8.21875 153.973 8.21875ZM153.973 9.28125C152.769 9.28125 151.988 9.76562 152.004 10.5156C151.988 11.2656 152.769 11.7188 153.973 11.7188C155.176 11.7188 155.957 11.2656 155.973 10.5156C155.957 9.76562 155.176 9.28125 153.973 9.28125ZM176.672 5.60938V10.9531H178.156V5.32812H179.562V19.3281H178.156V12.1719H176.672V18.6562H175.297V5.60938H176.672ZM170.75 7.0625V8.28125H169.078V14.5C169.57 14.4766 170.156 14.4141 170.797 14.25L170.922 15.5C169.797 15.75 168.938 15.7656 168.297 15.7656H167.719V7.0625H170.75ZM174.438 7.0625V8.28125H172.672V14.5C173.273 14.4844 173.93 14.4219 174.672 14.2188L174.797 15.4688C173.672 15.75 172.75 15.7656 171.922 15.7656H171.328V7.0625H174.438ZM183.623 16.9219L182.373 21.2344H181.045L181.873 16.9219H183.623Z" fill="#FF3871"/>
<path d="M18.527 73.402H2.27698C1.01996 73.402 -0.00390625 72.3781 -0.00390625 71.1211V67.5934C-0.00390625 66.3364 1.01996 65.3126 2.27698 65.3126H18.527C19.0846 65.3126 19.561 65.12 19.9564 64.7145C20.3517 64.3192 20.5545 63.8427 20.5545 63.2852C20.5545 62.7276 20.3517 62.3323 19.9564 62.16C19.561 61.9775 19.0846 61.8964 18.527 61.8964H10.0928C8.68374 61.8964 7.36589 61.6328 6.13928 61.0956C4.91267 60.5583 3.83812 59.8284 2.9359 58.9161C2.02355 57.9936 1.3038 56.9191 0.786801 55.6925C0.259663 54.4659 -0.00390625 53.1481 -0.00390625 51.7391C-0.00390625 50.33 0.259663 49.0224 0.786801 47.7856C1.31394 46.559 2.03369 45.4845 2.9359 44.5823C3.84826 43.67 4.91267 42.9503 6.13928 42.4333C7.36589 41.9061 8.68374 41.6426 10.0928 41.6426H24.2343C25.4913 41.6426 26.5152 42.6664 26.5152 43.9234V47.4511C26.5152 48.7081 25.4913 49.7319 24.2343 49.7319H10.0928C9.53527 49.7319 9.05882 49.9347 8.66346 50.33C8.26811 50.7254 8.06536 51.2018 8.06536 51.7594C8.06536 52.3169 8.25797 52.8237 8.66346 53.2292C9.05882 53.6347 9.53527 53.8375 10.0928 53.8375H18.527C19.9158 53.8375 21.2235 54.0706 22.4502 54.5369C23.6768 55.0032 24.7513 55.652 25.6535 56.4832C26.5659 57.3145 27.2856 58.318 27.8229 59.4838C28.3602 60.6496 28.6238 61.9268 28.6238 63.3156C28.6238 64.7044 28.3602 66.0323 27.8229 67.2488C27.2856 68.4652 26.5659 69.5397 25.6535 70.4521C24.7412 71.3746 23.6768 72.0943 22.4502 72.6214C21.2235 73.1485 19.9158 73.4121 18.527 73.4121V73.402Z" fill="#FF3871"/>
<path d="M44.5701 65.6274C44.8843 65.7287 45.1986 65.7896 45.523 65.82C45.8372 65.8504 46.1515 65.8605 46.4759 65.8605C47.2666 65.8605 48.0269 65.749 48.7669 65.5361C49.4968 65.3233 50.1861 65.009 50.8349 64.6035C51.4735 64.198 52.0514 63.7013 52.5582 63.1235V63.1032C53.3591 62.1909 54.758 62.1402 55.5994 62.9917L58.3162 65.7186C59.1677 66.5802 59.1779 67.9589 58.3466 68.851C57.9614 69.2666 57.5559 69.6518 57.1301 70.0268C56.1468 70.8784 55.0926 71.5981 53.9572 72.1962C52.8218 72.7943 51.6256 73.2403 50.3686 73.5444C49.1116 73.8485 47.814 74.0006 46.4961 74.0006C44.2558 74.0006 42.1574 73.585 40.1806 72.7537C38.214 71.9225 36.4907 70.7669 35.0106 69.2767C33.5306 67.7967 32.3749 66.0227 31.5234 63.975C30.6719 61.9274 30.2461 59.6769 30.2461 57.2136C30.2461 54.7503 30.6719 52.3985 31.5234 50.3204C32.3749 48.2423 33.5407 46.4683 35.0106 45.0086C36.4805 43.5387 38.2039 42.4034 40.1806 41.5924C42.1473 40.7815 44.2558 40.376 46.4961 40.376C47.8241 40.376 49.1217 40.5382 50.3889 40.8524C51.656 41.1667 52.8624 41.6228 53.9977 42.2209C55.1331 42.819 56.1975 43.5387 57.191 44.4004C58.8129 45.8094 59.0055 48.2525 57.637 49.9149L44.6005 65.6274H44.5701ZM48.7263 48.9012C48.3513 48.7593 47.9762 48.6782 47.6112 48.6377C47.2463 48.5971 46.8611 48.5769 46.4657 48.5769C45.3608 48.5769 44.3166 48.7796 43.3333 49.1851C42.35 49.5906 41.4985 50.1684 40.7787 50.9185C40.059 51.6686 39.4913 52.581 39.0757 53.6352C38.66 54.6895 38.4471 55.8857 38.4471 57.2136C38.4471 57.5076 38.4573 57.8522 38.4877 58.2273C38.5181 58.6024 38.5688 58.9876 38.6398 59.3728C38.7107 59.758 38.7918 60.1331 38.8932 60.4879C38.9946 60.8427 39.1162 61.1569 39.2784 61.4408L48.7263 48.9114V48.9012Z" fill="#FF3871"/>
<path d="M92.3259 57.2229C92.3259 59.595 91.9001 61.815 91.0486 63.8627C90.1971 65.9104 89.0414 67.6843 87.5715 69.1745C86.1016 70.6748 84.3884 71.8507 82.4218 72.7123C80.4552 73.574 78.3365 73.9997 76.086 73.9997C73.8355 73.9997 71.7472 73.574 69.7705 72.7123C67.8038 71.8507 66.0805 70.6748 64.6005 69.1745C63.1204 67.6843 61.9648 65.9104 61.1132 63.8627C60.2617 61.815 59.8359 59.6051 59.8359 57.2229C59.8359 54.8407 60.2617 52.57 61.1132 50.5122C61.9648 48.4543 63.1306 46.6804 64.6005 45.1801C66.0704 43.6899 67.7937 42.514 69.7705 41.6625C71.7371 40.811 73.8457 40.3853 76.086 40.3853C78.3263 40.3853 80.4552 40.7907 82.4218 41.5916C84.3884 42.3924 86.1117 43.5379 87.5715 45.0078C89.0414 46.4878 90.1971 48.2516 91.0486 50.3196C91.9001 52.3875 92.3259 54.6886 92.3259 57.2229ZM84.1654 57.2229C84.1654 55.9152 83.9525 54.7292 83.5267 53.6749C83.101 52.6207 82.5232 51.7083 81.7933 50.9379C81.0634 50.1776 80.2017 49.5897 79.2285 49.1842C78.2452 48.7787 77.2011 48.576 76.0961 48.576C74.9912 48.576 73.947 48.7787 72.9637 49.1842C71.9804 49.5897 71.1289 50.1776 70.4091 50.9379C69.6894 51.6982 69.1217 52.6105 68.706 53.6749C68.2904 54.7292 68.0775 55.9152 68.0775 57.2229C68.0775 58.4495 68.2904 59.5848 68.706 60.6391C69.1217 61.6933 69.6894 62.5955 70.4091 63.3761C71.1289 64.1465 71.9804 64.7547 72.9637 65.2008C73.947 65.6468 74.9912 65.8698 76.0961 65.8698C77.2011 65.8698 78.2452 65.6569 79.2285 65.2413C80.2119 64.8257 81.0634 64.2377 81.7933 63.4876C82.5232 62.7374 83.101 61.8251 83.5267 60.7506C83.9525 59.6862 84.1654 58.5002 84.1654 57.2128V57.2229Z" fill="#FF3871"/>
<path d="M136.915 73.4016H128.42V49.8735C128.42 49.4173 128.308 48.9814 128.075 48.5861C127.852 48.1907 127.538 47.8359 127.153 47.542C126.767 47.248 126.311 47.0148 125.804 46.8425C125.287 46.6702 124.74 46.5891 124.142 46.5891C123.544 46.5891 122.996 46.6702 122.479 46.8425C121.962 47.0148 121.516 47.248 121.131 47.542C120.746 47.8359 120.442 48.1907 120.229 48.5861C120.006 48.9814 119.905 49.4173 119.905 49.8735V73.4016H111.379V49.8735C111.379 49.4173 111.268 48.9814 111.055 48.5861C110.832 48.1907 110.538 47.8359 110.153 47.542C109.767 47.248 109.311 47.0148 108.804 46.8425C108.287 46.6702 107.74 46.5891 107.142 46.5891C106.544 46.5891 105.996 46.6702 105.479 46.8425C104.962 47.0148 104.516 47.248 104.131 47.542C103.746 47.8359 103.442 48.1907 103.229 48.5861C103.006 48.9814 102.904 49.4173 102.904 49.8735V73.4016H94.3789V49.8735C94.3789 48.5151 94.7134 47.2277 95.3724 46.0214C96.0313 44.8151 96.9436 43.771 98.1094 42.8789C99.2752 41.9869 100.623 41.2773 102.174 40.7704C103.725 40.2534 105.388 40 107.152 40C108.733 40 110.264 40.223 111.724 40.6589C113.194 41.0948 114.501 41.7233 115.677 42.5545C116.843 41.7233 118.161 41.0948 119.611 40.6589C121.06 40.223 122.581 40 124.172 40C125.936 40 127.589 40.2534 129.15 40.7704C130.701 41.2874 132.059 41.9869 133.215 42.8789C134.37 43.771 135.283 44.8252 135.952 46.0214C136.611 47.2277 136.945 48.505 136.945 49.8735V73.4016H136.915Z" fill="#FF3871"/>
<path d="M158.093 73.4064H141.843C140.586 73.4064 139.562 72.3825 139.562 71.1255V67.5978C139.562 66.3408 140.586 65.317 141.843 65.317H158.093C158.651 65.317 159.127 65.1244 159.523 64.7189C159.918 64.3236 160.121 63.8471 160.121 63.2896C160.121 62.732 159.918 62.3367 159.523 62.1644C159.127 61.9819 158.651 61.9008 158.093 61.9008H149.659C148.25 61.9008 146.932 61.6372 145.706 61.1C144.479 60.5627 143.405 59.8328 142.502 58.9205C141.59 57.998 140.87 56.9235 140.353 55.6969C139.826 54.4703 139.562 53.1525 139.562 51.7435C139.562 50.3344 139.826 49.0267 140.353 47.79C140.88 46.5634 141.6 45.4889 142.502 44.5867C143.415 43.6744 144.479 42.9547 145.706 42.4377C146.932 41.9105 148.25 41.647 149.659 41.647H163.801C165.058 41.647 166.082 42.6708 166.082 43.9278V47.4555C166.082 48.7125 165.058 49.7363 163.801 49.7363H149.659C149.102 49.7363 148.625 49.9391 148.23 50.3344C147.835 50.7298 147.632 51.2062 147.632 51.7637C147.632 52.3213 147.824 52.8281 148.23 53.2336C148.625 53.6391 149.102 53.8418 149.659 53.8418H158.093C159.482 53.8418 160.79 54.075 162.017 54.5413C163.243 55.0076 164.318 55.6564 165.22 56.4876C166.132 57.3189 166.852 58.3224 167.389 59.4882C167.927 60.6539 168.19 61.9312 168.19 63.32C168.19 64.7088 167.927 66.0367 167.389 67.2532C166.852 68.4696 166.132 69.5441 165.22 70.4565C164.308 71.3789 163.243 72.0987 162.017 72.6258C160.79 73.1529 159.482 73.4165 158.093 73.4165V73.4064Z" fill="#FF3871"/>
<path d="M184.539 65.6274C184.853 65.7287 185.167 65.7896 185.492 65.82C185.806 65.8504 186.12 65.8605 186.445 65.8605C187.235 65.8605 187.996 65.749 188.736 65.5361C189.466 65.3233 190.155 65.009 190.804 64.6035C191.442 64.198 192.02 63.7013 192.527 63.1235V63.1032C193.328 62.1909 194.727 62.1402 195.568 62.9917L198.285 65.7186C199.136 66.5802 199.147 67.9589 198.315 68.851C197.93 69.2666 197.525 69.6518 197.099 70.0268C196.116 70.8784 195.061 71.5981 193.926 72.1962C192.791 72.7943 191.594 73.2403 190.337 73.5444C189.08 73.8485 187.783 74.0006 186.465 74.0006C184.225 74.0006 182.126 73.585 180.149 72.7537C178.183 71.9225 176.459 70.7669 174.979 69.2767C173.499 67.7967 172.344 66.0227 171.492 63.975C170.641 61.9274 170.215 59.6769 170.215 57.2136C170.215 54.7503 170.641 52.3985 171.492 50.3204C172.344 48.2423 173.509 46.4683 174.979 45.0086C176.449 43.5387 178.173 42.4034 180.149 41.5924C182.116 40.7815 184.225 40.376 186.465 40.376C187.793 40.376 189.09 40.5382 190.358 40.8524C191.625 41.1667 192.831 41.6228 193.966 42.2209C195.102 42.819 196.166 43.5387 197.16 44.4004C198.782 45.8094 198.974 48.2525 197.606 49.9149L184.569 65.6274H184.539ZM188.695 48.9012C188.32 48.7593 187.945 48.6782 187.58 48.6377C187.215 48.5971 186.83 48.5769 186.434 48.5769C185.33 48.5769 184.285 48.7796 183.302 49.1851C182.319 49.5906 181.467 50.1684 180.747 50.9185C180.028 51.6686 179.46 52.581 179.044 53.6352C178.629 54.6895 178.416 55.8857 178.416 57.2136C178.416 57.5076 178.426 57.8522 178.456 58.2273C178.487 58.6024 178.538 58.9876 178.609 59.3728C178.679 59.758 178.761 60.1331 178.862 60.4879C178.963 60.8427 179.085 61.1569 179.247 61.4408L188.695 48.9114V48.9012Z" fill="#FF3871"/>
</svg>
