<svg width="24" height="24" viewBox="0 0 24 24" fill="none" xmlns="http://www.w3.org/2000/svg">
<path fill-rule="evenodd" clip-rule="evenodd" d="M8.44444 7.55556C8.44444 6.61256 8.81905 5.70819 9.48584 5.0414C10.1526 4.3746 11.057 4 12 4C12.943 4 13.8474 4.3746 14.5142 5.0414C15.181 5.70819 15.5556 6.61256 15.5556 7.55556C15.5556 8.49855 15.181 9.40292 14.5142 10.0697C13.8474 10.7365 12.943 11.1111 12 11.1111C11.057 11.1111 10.1526 10.7365 9.48584 10.0697C8.81905 9.40292 8.44444 8.49855 8.44444 7.55556ZM8.44444 12.8889C7.2657 12.8889 6.13524 13.3571 5.30175 14.1906C4.46825 15.0241 4 16.1546 4 17.3333C4 18.0406 4.28095 18.7189 4.78105 19.219C5.28115 19.719 5.95942 20 6.66667 20H17.3333C18.0406 20 18.7189 19.719 19.219 19.219C19.719 18.7189 20 18.0406 20 17.3333C20 16.1546 19.5317 15.0241 18.6983 14.1906C17.8648 13.3571 16.7343 12.8889 15.5556 12.8889H8.44444Z" fill="#66B5FF"/>
</svg>
