<svg width="17" height="18" viewBox="0 0 17 18" fill="none" xmlns="http://www.w3.org/2000/svg">
<path fill-rule="evenodd" clip-rule="evenodd" d="M12.75 4.20448C12.75 4.75662 12.6401 5.30336 12.4265 5.81347C12.2129 6.32358 11.8999 6.78708 11.5052 7.1775C11.1106 7.56792 10.642 7.87762 10.1264 8.08892C9.61077 8.30021 9.05812 8.40897 8.5 8.40897C7.94188 8.40897 7.38923 8.30021 6.8736 8.08892C6.35796 7.87762 5.88944 7.56792 5.4948 7.1775C5.10015 6.78708 4.78709 6.32358 4.57351 5.81347C4.35993 5.30336 4.25 4.75662 4.25 4.20448C4.25 3.08938 4.69777 2.01996 5.4948 1.23146C6.29182 0.442971 7.37283 0 8.5 0C9.62717 0 10.7082 0.442971 11.5052 1.23146C12.3022 2.01996 12.75 3.08938 12.75 4.20448ZM8.5 10.0856C2.37989 10.0856 0 13.9389 0 15.7305C0 17.5231 5.06655 18 8.5 18C11.9334 18 17 17.5231 17 15.7305C17 13.9389 14.6201 10.0856 8.5 10.0856Z" fill="currentColor"/>
</svg>
