<svg width="10" height="16" viewBox="0 0 10 16" fill="none" xmlns="http://www.w3.org/2000/svg">
<path d="M2.49434 1.10341C2.09697 0.720097 1.46376 0.731584 1.08028 1.1288C0.697039 1.52612 0.707623 2.15937 1.10469 2.54286L6.75997 7.99891L1.10469 13.4569C0.707618 13.8405 0.695889 14.4737 1.0793 14.871C1.46274 15.2681 2.09601 15.2785 2.49336 14.8954L8.89376 8.71962L8.91915 8.69423C8.92745 8.68562 8.93465 8.67571 8.94258 8.66688C8.95313 8.65516 8.96394 8.64382 8.97383 8.63173C9.03119 8.56164 9.07709 8.48573 9.11251 8.40614C9.11629 8.39761 9.12069 8.38936 9.12422 8.38075C9.13296 8.35953 9.14045 8.33795 9.14766 8.3163C9.15016 8.30877 9.15316 8.30141 9.15547 8.29384C9.21997 8.0835 9.21289 7.8568 9.13594 7.65028C9.13339 7.64343 9.13084 7.63658 9.12813 7.62977C9.1199 7.60908 9.11143 7.58845 9.10176 7.56825C9.09756 7.55947 9.09354 7.55056 9.08907 7.54188C9.07936 7.52303 9.0688 7.50455 9.05782 7.48622C9.05056 7.4741 9.04318 7.46196 9.03536 7.45009C8.99549 7.3896 8.94805 7.33256 8.89376 7.28016L2.49434 1.10341Z" fill="#2C2C2C"/>
</svg>
