<svg width="40" height="42" viewBox="0 0 40 42" fill="none" xmlns="http://www.w3.org/2000/svg">
<path d="M31.5332 4.31494L39.0654 14.313L39.3291 26.8667L32.2246 37.1763L20.4697 41.3071L8.5498 37.6831L1.0166 27.6851L0.75293 15.1333L7.85742 4.82275L19.6133 0.691895L31.5332 4.31494Z" fill="#FFB7CC" stroke="#575757"/>
<path d="M26.6536 4.78757C25.9439 4.27555 25.091 4 24.2158 4H15.7839C14.9089 4 14.0561 4.27547 13.3465 4.78734L6.53746 9.69859C5.82211 10.2146 5.28894 10.9442 5.01473 11.7825L2.42372 19.7037C2.14842 20.5454 2.14842 21.4528 2.42372 22.2945L5.01483 30.2159C5.28898 31.0541 5.82198 31.7836 6.53711 32.2996L13.3463 37.2123C14.0561 37.7244 14.909 38 15.7842 38H24.2155C25.0909 38 25.944 37.7243 26.6538 37.2121L33.4616 32.2993C34.1764 31.7835 34.7092 31.0543 34.9834 30.2166L37.5759 22.2951C37.8514 21.4531 37.8514 20.5451 37.5759 19.7031L34.9835 11.7819C34.7092 10.944 34.1763 10.2147 33.4613 9.69882L26.6536 4.78757Z" fill="#FFF1F5"/>
<path d="M19.7891 9.69531C20.4811 9.19769 21.1749 9.04446 21.8379 9.1709C22.5749 9.3116 23.1818 9.78186 23.6445 10.2793C24.1126 10.7825 24.4768 11.3605 24.7207 11.8037C24.8437 12.0272 24.9383 12.2208 25.0029 12.3594C25.0352 12.4285 25.0601 12.4842 25.0771 12.5234C25.0776 12.5246 25.0776 12.5262 25.0781 12.5273C25.5533 13.2842 26.0503 13.6967 26.5059 13.9131C26.9647 14.131 27.4184 14.1672 27.8291 14.1152C28.244 14.0627 28.6115 13.9199 28.8789 13.7861C29.0111 13.72 29.1157 13.6579 29.1855 13.6133C29.2204 13.591 29.2465 13.5728 29.2627 13.5615C29.2706 13.556 29.2763 13.552 29.2793 13.5498C29.2804 13.549 29.2809 13.5481 29.2812 13.5479C29.4742 13.4031 29.7435 13.4174 29.9209 13.5811C30.0984 13.745 30.1335 14.0128 30.0039 14.2168C28.8368 16.0536 27.5734 17.0325 26.292 17.3984C25.0104 17.7644 23.7978 17.4917 22.7822 17.002C21.7705 16.514 20.9235 15.7967 20.3359 15.2139C20.1196 14.9992 19.9372 14.7992 19.791 14.6328C19.6446 14.7994 19.463 15.0007 19.2461 15.2158C18.6584 15.7985 17.8106 16.5151 16.7988 17.0029C15.7832 17.4925 14.5705 17.7652 13.2891 17.3994C12.0077 17.0335 10.7449 16.0542 9.57812 14.2178C9.4486 14.0137 9.48347 13.7459 9.66113 13.582C9.83874 13.4185 10.1079 13.4055 10.3008 13.5508L10.2998 13.5498C10.3 13.55 10.3012 13.5507 10.3027 13.5518C10.3058 13.554 10.3114 13.558 10.3193 13.5635C10.3355 13.5748 10.3617 13.593 10.3965 13.6152C10.4664 13.6598 10.5709 13.722 10.7031 13.7881C10.9706 13.9219 11.338 14.0647 11.7529 14.1172C12.1635 14.1691 12.6165 14.1328 13.0752 13.915C13.53 13.6991 14.0256 13.2873 14.5 12.5332C14.5011 12.5306 14.5027 12.5281 14.5039 12.5254C14.5209 12.4862 14.5459 12.4305 14.5781 12.3613C14.6426 12.2228 14.7375 12.0291 14.8604 11.8057C15.1041 11.3624 15.4678 10.7835 15.9355 10.2803C16.3982 9.78266 17.0059 9.31246 17.7432 9.17188C18.4053 9.04572 19.0977 9.19909 19.7891 9.69531Z" fill="#FF5183" stroke="#575757" stroke-linejoin="round"/>
<path d="M10.6561 29.842C9.18073 29.842 8 27.7519 8 24.9128C8.0219 21.9841 9.77209 20.5208 10.2519 20.5208C10.5028 20.5208 10.69 20.6999 10.7995 20.7549C11.0285 20.6551 11.357 20.3193 11.7951 20.3193C12.5059 20.3193 13.6428 21.3593 13.6428 24.5444C13.6428 24.6889 13.6309 24.8578 13.6309 25.0145C13.5433 28.1671 12.1435 29.842 10.6561 29.842ZM10.9528 21.9617C10.461 21.9617 9.58692 23.2256 9.58692 25.3585C9.58692 27.2146 10.2858 28.3197 10.7896 28.3197C11.2933 28.3197 12.0798 27.3815 12.0917 25.1122C12.0917 22.9997 11.4785 21.9597 10.9548 21.9597L10.9528 21.9617Z" fill="#FF5183"/>
<path d="M16.3952 26.846C16.3952 27.7741 16.4828 28.6227 16.4828 29.2821C16.4828 29.6403 16.2758 29.7747 16.0129 29.7747C15.5868 29.7747 15.0174 29.4287 14.9736 29.0379C14.8541 28.1546 14.8202 26.9376 14.8202 25.6961C14.8202 24.5442 14.8641 23.3719 14.9079 22.4317C14.4479 22.4317 13.9023 21.6501 13.9023 21.4039C13.9023 21.1027 15.2364 20.7119 16.8213 20.7119C18.231 20.7119 19.7303 21.1373 19.7303 22.9018C19.7303 22.969 19.7184 23.0463 19.7184 23.1257C19.5989 24.9919 17.5859 26.4776 16.3952 26.848V26.846ZM16.5923 22.2872C16.5047 23.26 16.451 24.1657 16.4291 25.3827C17.0423 25.0917 18.3863 24.0089 18.4401 22.6677C18.4401 22.1976 17.2375 22.2872 16.5923 22.2872Z" fill="#FF5183"/>
<path d="M25.4042 27.5056C25.4042 27.6725 25.3724 27.8292 25.2628 27.9534C24.2673 29.0259 22.7481 29.7301 22.0153 29.7301C21.5235 29.7301 20.6713 29.1928 20.6056 28.9262C20.3647 27.9432 20.289 26.8584 20.2671 25.7961C19.8291 25.6292 19.6758 24.9922 19.6758 24.6564C19.6758 24.4101 19.7952 24.3653 20.0362 24.3653C20.1118 24.3653 20.1895 24.3653 20.2552 24.3755C20.2871 22.8898 20.4523 21.8152 20.6594 21.2576C20.8127 20.8322 22.1468 20.7549 23.1642 20.7549C23.6998 20.7549 24.1478 20.7773 24.2912 20.7997C24.6735 20.8546 25.1872 21.3919 25.1872 21.7379C25.1872 21.8722 25.1115 21.9618 24.9144 21.9719C24.2792 22.0065 22.6505 22.1836 22.1487 22.4197C22.1049 22.9224 22.0731 23.6713 22.0512 24.3531H22.1607C22.774 24.3531 23.5923 24.1069 24.2812 23.8504H24.3031C24.4345 23.8504 24.5441 24.1069 24.5441 24.3531C24.5441 25.269 22.7182 25.6618 22.0392 25.794C22.0392 26.3863 22.083 27.4487 22.1049 28.1752C23.1224 28.0857 24.554 27.4161 25.1772 26.9907C25.1872 26.9907 25.1991 26.9785 25.1991 26.9785C25.231 26.9785 25.2648 27.0131 25.2967 27.0559C25.3505 27.123 25.4062 27.3123 25.4062 27.5036L25.4042 27.5056Z" fill="#FF5183"/>
<path d="M31.3204 29.7974C31.3105 29.9541 31.189 29.9989 31.0038 29.9989C30.6435 29.9989 30.074 29.7303 29.9983 29.541C29.8888 29.2723 27.8778 24.9475 27.8778 24.9475C27.7145 25.9977 27.605 27.1822 27.605 28.3565C27.605 28.8592 27.6707 29.3517 27.6707 29.832C27.6707 29.9317 27.5831 30.0437 27.4417 30.0437C27.2128 30.0437 26.2391 29.4616 26.2172 28.8694C26.2073 28.4664 26.1953 28.0085 26.1953 27.4956C26.1953 25.5499 26.3048 23.0141 26.4581 21.5487C26.5238 20.9117 27.1033 20.6777 27.5413 20.6777C27.7603 20.6777 27.9355 20.7326 27.9674 20.8344C28.0988 21.1254 30.1974 26.0201 30.1974 26.0201C30.1536 25.5398 30.1437 25.0147 30.1437 24.4896C30.1437 22.9144 30.2851 21.3045 30.3846 20.6553C30.4185 20.4538 30.516 20.3643 30.6693 20.3643C31.0636 20.3643 31.9058 20.8344 31.9058 21.2028V21.2353C31.5454 23.3479 31.4021 27.6279 31.3264 29.7974H31.3204Z" fill="#FF5183"/>
</svg>
