<svg width="11" height="10" viewBox="0 0 11 10" fill="none" xmlns="http://www.w3.org/2000/svg">
<path d="M6.21492 0.491858L6.99625 2.77896C7.09696 3.07226 7.38519 3.27329 7.71161 3.27329H10.2466C10.9759 3.27329 11.278 4.15649 10.6876 4.56513L8.6388 5.97892C8.37488 6.16017 8.26376 6.48313 8.36446 6.77643L9.1458 9.06353C9.37152 9.71934 8.57977 10.2664 7.98942 9.86105L5.94058 8.44727C5.67666 8.26601 5.31898 8.26601 5.05854 8.44727L3.0097 9.86105C2.41935 10.2664 1.6276 9.71934 1.85332 9.06353L2.63466 6.77643C2.73536 6.48313 2.62424 6.16017 2.36032 5.97892L0.311479 4.56513C-0.278865 4.15978 0.0267237 3.27329 0.752499 3.27329H3.28751C3.61393 3.27329 3.90216 3.07555 4.00286 2.77896L4.7842 0.491858C5.00992 -0.163953 5.9892 -0.163953 6.21492 0.491858Z" fill="#FF5183"/>
</svg>
