<svg width="24" height="24" viewBox="0 0 19 20" fill="none" xmlns="http://www.w3.org/2000/svg">
<path d="M18.0346 6.59781C17.5477 6.11094 16.948 5.80931 16.3186 5.69056C16.3887 5.42456 16.4255 5.14431 16.4255 4.85575C16.4255 3.03531 14.9494 1.55925 13.129 1.55925C12.4414 1.55925 11.8026 1.77063 11.2741 2.13044C11.1352 1.89294 10.963 1.6685 10.7599 1.46544C9.47269 0.178188 7.38506 0.178188 6.09781 1.46544C5.61094 1.95231 5.30931 2.552 5.19056 3.18138C4.92456 3.11131 4.64431 3.0745 4.35575 3.0745C2.53531 3.0745 1.05925 4.55056 1.05925 6.371C1.05925 7.05856 1.27062 7.69744 1.63044 8.22588C1.39294 8.36481 1.1685 8.537 0.965437 8.74006C-0.321813 10.0273 -0.321813 12.1149 0.965437 13.4022C1.45231 13.8891 2.052 14.1907 2.68138 14.3094C2.61131 14.5754 2.5745 14.8557 2.5745 15.1442C2.5745 16.9647 4.05056 18.4407 5.871 18.4407C6.55856 18.4407 7.19744 18.2294 7.72587 17.8696C7.86481 18.1071 8.037 18.3315 8.24006 18.5346C9.52731 19.8218 11.6149 19.8218 12.9022 18.5346C13.3891 18.0477 13.6907 17.448 13.8094 16.8186C14.0754 16.8887 14.3557 16.9255 14.6442 16.9255C16.4647 16.9255 17.9408 15.4494 17.9408 13.629C17.9408 12.9414 17.7294 12.3026 17.3696 11.7741C17.6071 11.6352 17.8315 11.463 18.0346 11.2599C19.3218 9.97269 19.3218 7.88506 18.0346 6.59781Z" fill="#EDEDED"/>
<path d="M9.11958 5.67082C9.23932 5.3023 9.76068 5.3023 9.88042 5.67082L10.645 8.02401C10.6986 8.18882 10.8522 8.30041 11.0254 8.30041H13.4997C13.8872 8.30041 14.0483 8.79625 13.7349 9.02401L11.7331 10.4784C11.5929 10.5802 11.5342 10.7608 11.5878 10.9256L12.3524 13.2788C12.4721 13.6473 12.0503 13.9537 11.7369 13.726L9.73511 12.2716C9.59492 12.1698 9.40508 12.1698 9.26489 12.2716L7.26314 13.726C6.94965 13.9537 6.52786 13.6473 6.6476 13.2788L7.4122 10.9256C7.46575 10.7608 7.40709 10.5802 7.26689 10.4784L5.26515 9.02401C4.95166 8.79625 5.11277 8.30041 5.50026 8.30041H7.97456C8.14785 8.30041 8.30143 8.18882 8.35498 8.02401L9.11958 5.67082Z" fill="#FF3871"/>
</svg>
