<svg width="65" height="64" viewBox="0 0 65 64" fill="none" xmlns="http://www.w3.org/2000/svg">
<path d="M60.6157 5H4.38293C2.79073 5 1.5 6.31764 1.5 7.94303V56.0555C1.5 57.6809 2.79073 58.9986 4.38293 58.9986H60.6157C62.2079 58.9986 63.4986 57.6809 63.4986 56.0555V7.94303C63.4986 6.31764 62.2079 5 60.6157 5Z" fill="#FFF2F5"/>
<path d="M45.5498 28.5747L31.0997 44.7165L19.663 33.5729C18.5848 32.5229 16.895 32.5026 15.7926 33.5266L1.5 46.8209V56.057C1.5 57.682 2.79108 59 4.38293 59H60.6171C62.2089 59 63.5 57.682 63.5 56.057V42.6178L49.6529 28.482C48.5093 27.3146 46.6422 27.3581 45.5512 28.5761L45.5498 28.5747Z" fill="#FF9EBA"/>
<path d="M32.9449 30.2956C37.0782 30.2956 40.4289 26.8751 40.4289 22.6556C40.4289 18.4362 37.0782 15.0156 32.9449 15.0156C28.8116 15.0156 25.4609 18.4362 25.4609 22.6556C25.4609 26.8751 28.8116 30.2956 32.9449 30.2956Z" fill="#FFD1DE"/>
</svg>
