<svg width="9" height="18" viewBox="0 0 9 18" fill="none" xmlns="http://www.w3.org/2000/svg">
<path d="M8.78122 15.9703C8.8509 16.04 8.90617 16.1227 8.94389 16.2137C8.9816 16.3048 9.00101 16.4024 9.00101 16.5009C9.00101 16.5995 8.9816 16.697 8.94389 16.7881C8.90617 16.8791 8.8509 16.9618 8.78122 17.0315C8.71153 17.1012 8.62881 17.1565 8.53776 17.1942C8.44672 17.2319 8.34914 17.2513 8.25059 17.2513C8.15205 17.2513 8.05446 17.2319 7.96342 17.1942C7.87237 17.1565 7.78965 17.1012 7.71997 17.0315L0.219965 9.53153C0.150232 9.46188 0.0949136 9.37916 0.0571704 9.28811C0.0194272 9.19706 0 9.09947 0 9.00091C0 8.90234 0.0194272 8.80475 0.0571704 8.7137C0.0949136 8.62265 0.150232 8.53993 0.219965 8.47028L7.71997 0.97028C7.8607 0.82955 8.05157 0.750488 8.25059 0.750488C8.44961 0.750488 8.64049 0.82955 8.78122 0.97028C8.92195 1.11101 9.00101 1.30188 9.00101 1.50091C9.00101 1.69993 8.92195 1.8908 8.78122 2.03153L1.8109 9.00091L8.78122 15.9703Z" fill="#1A1A1A"/>
</svg>
