<svg width="18" height="18" viewBox="0 0 18 18" fill="none" xmlns="http://www.w3.org/2000/svg">
<path d="M16.4229 0.900391C16.612 0.899512 16.7752 0.963451 16.9053 1.09375C17.0347 1.22357 17.0996 1.38502 17.0996 1.57129V6.05469C17.0996 6.34148 17.001 6.58714 16.8027 6.78418C16.6042 6.98135 16.3562 7.07887 16.0664 7.07812H11.5332C11.345 7.07812 11.1823 7.0138 11.0518 6.88477C10.921 6.75544 10.8555 6.59308 10.8555 6.40527C10.8556 6.21766 10.9209 6.05629 11.0518 5.92773C11.1824 5.79942 11.3451 5.73535 11.5332 5.73535H15.0625C14.4759 4.68093 13.669 3.84287 12.6406 3.21973C11.5666 2.56891 10.3831 2.24316 9.08887 2.24316C7.18884 2.24319 5.57713 2.8994 4.24805 4.21387C2.91898 5.52832 2.25586 7.12182 2.25586 9C2.25586 10.8782 2.91897 12.4717 4.24805 13.7861C5.57714 15.1006 7.18884 15.7568 9.08887 15.7568C10.4465 15.7568 11.6876 15.3939 12.8145 14.667C13.872 13.9845 14.6724 13.0932 15.2168 11.9922L15.3223 11.7695C15.3977 11.5979 15.5214 11.4737 15.6914 11.4033C15.8595 11.3333 16.0329 11.3282 16.207 11.3857H16.208C16.4004 11.4462 16.5331 11.5741 16.5967 11.7637C16.6575 11.9449 16.651 12.1242 16.5762 12.2969V12.2979C15.9265 13.7517 14.9275 14.9162 13.5811 15.7891C12.234 16.6623 10.7354 17.0988 9.08887 17.0996C6.80546 17.0996 4.86715 16.3158 3.28027 14.748C1.69417 13.1794 0.900502 11.2624 0.900391 9.00391C0.900391 6.7452 1.69409 4.82712 3.28027 3.25684C4.8664 1.68669 6.80461 0.901179 9.08887 0.900391C10.4788 0.900391 11.7817 1.22663 12.9951 1.87988C14.1102 2.48062 15.0266 3.30085 15.7441 4.33887V1.57129C15.7442 1.38354 15.8095 1.22139 15.9404 1.09277C16.071 0.964534 16.2344 0.901279 16.4229 0.900391Z" fill="#787878" stroke="#787878" stroke-width="0.2"/>
</svg>
