<svg width="42" height="41" viewBox="0 0 42 41" fill="none" xmlns="http://www.w3.org/2000/svg">
<path d="M31.7405 3.83984H5.41667C3.11548 3.83984 1.25 5.70533 1.25 8.00651V31.3887C1.25 33.6898 3.11548 35.5553 5.41666 35.5553H31.7405C34.0417 35.5553 35.9072 33.6898 35.9072 31.3887V8.00651C35.9072 5.70532 34.0417 3.83984 31.7405 3.83984Z" fill="#FFF2F5" stroke="#575757" stroke-miterlimit="10"/>
<path d="M28.8482 39.9744C35.4672 39.9744 40.8331 34.6087 40.8331 27.9899C40.8331 21.371 35.4672 16.0054 28.8482 16.0054C22.2291 16.0054 16.8633 21.371 16.8633 27.9899C16.8633 34.6087 22.2291 39.9744 28.8482 39.9744Z" fill="#FF5183" stroke="#575757" stroke-miterlimit="10"/>
<path d="M28 22V28.0209L32 32" stroke="white" stroke-width="2" stroke-miterlimit="10" stroke-linecap="round"/>
<path d="M8.12109 0.327148C8.37999 0.327348 8.62608 0.496098 8.81152 0.793945C8.9964 1.09104 9.11328 1.50702 9.11328 1.96973V9.55176C9.11322 10.0143 8.99635 10.4295 8.81152 10.7266C8.62607 11.0245 8.38002 11.1932 8.12109 11.1934C7.86199 11.1934 7.61525 11.0247 7.42969 10.7266C7.24486 10.4295 7.12799 10.0143 7.12793 9.55176V1.96973C7.12793 1.50702 7.24481 1.09104 7.42969 0.793945C7.61524 0.495906 7.86203 0.327148 8.12109 0.327148Z" fill="#FFB7CC" stroke="white" stroke-width="0.153934"/>
<path d="M8.117 11.9341C9.32933 11.9341 10.3121 10.9513 10.3121 9.73901C10.3121 8.52671 9.32933 7.54395 8.117 7.54395C6.90466 7.54395 5.92188 8.52671 5.92188 9.73901C5.92188 10.9513 6.90466 11.9341 8.117 11.9341Z" fill="#FFB7CC"/>
<path d="M18.2031 0.327148C18.462 0.327348 18.7081 0.496098 18.8936 0.793945C19.0784 1.09104 19.1953 1.50702 19.1953 1.96973V9.55176C19.1953 10.0143 19.0784 10.4295 18.8936 10.7266C18.7081 11.0245 18.4621 11.1932 18.2031 11.1934C17.944 11.1934 17.6973 11.0247 17.5117 10.7266C17.3269 10.4295 17.21 10.0143 17.21 9.55176V1.96973C17.21 1.50702 17.3268 1.09104 17.5117 0.793945C17.6973 0.495906 17.9441 0.327148 18.2031 0.327148Z" fill="#FFB7CC" stroke="white" stroke-width="0.153934"/>
<path d="M18.2029 11.9341C19.4153 11.9341 20.3981 10.9513 20.3981 9.73901C20.3981 8.52671 19.4153 7.54395 18.2029 7.54395C16.9906 7.54395 16.0078 8.52671 16.0078 9.73901C16.0078 10.9513 16.9906 11.9341 18.2029 11.9341Z" fill="#FFB7CC"/>
<path d="M28.293 0.327148C28.5519 0.327348 28.798 0.496098 28.9834 0.793945C29.1683 1.09104 29.2852 1.50702 29.2852 1.96973V9.55176C29.2851 10.0143 29.1682 10.4295 28.9834 10.7266C28.7979 11.0245 28.5519 11.1932 28.293 11.1934C28.0339 11.1934 27.7871 11.0247 27.6016 10.7266C27.4167 10.4295 27.2999 10.0143 27.2998 9.55176V1.96973C27.2998 1.50702 27.4167 1.09104 27.6016 0.793945C27.7871 0.495906 28.0339 0.327148 28.293 0.327148Z" fill="#FFB7CC" stroke="white" stroke-width="0.153934"/>
<path d="M28.2928 11.9341C29.5051 11.9341 30.4879 10.9513 30.4879 9.73901C30.4879 8.52671 29.5051 7.54395 28.2928 7.54395C27.0804 7.54395 26.0977 8.52671 26.0977 9.73901C26.0977 10.9513 27.0804 11.9341 28.2928 11.9341Z" fill="#FFB7CC"/>
</svg>
