<svg width="16" height="16" viewBox="0 0 16 16" fill="none" xmlns="http://www.w3.org/2000/svg">
<path d="M13.9748 8C16.9622 12.9495 12.9495 16.9622 8 13.9748C3.05051 16.9622 -0.962196 12.9495 2.0252 8C-0.962196 3.05051 3.05051 -0.962196 8 2.0252C12.9495 -0.962196 16.9622 3.05051 13.9748 8Z" fill="#FFEAF0"/>
<path d="M8.38995 5.29511L8.81614 6.66737C8.87107 6.84335 9.02828 6.96397 9.20633 6.96397H10.5891C10.9868 6.96397 11.1516 7.49389 10.8296 7.73908L9.71207 8.58735C9.56812 8.6961 9.5075 8.88988 9.56243 9.06586L9.98862 10.4381C10.1117 10.8316 9.67987 11.1598 9.35787 10.9166L8.24032 10.0684C8.09636 9.95961 7.90126 9.95961 7.7592 10.0684L6.64165 10.9166C6.31965 11.1598 5.88778 10.8316 6.0109 10.4381L6.43709 9.06586C6.49202 8.88988 6.4314 8.6961 6.28745 8.58735L5.1699 7.73908C4.84789 7.49587 5.01458 6.96397 5.41045 6.96397H6.79319C6.97124 6.96397 7.12845 6.84533 7.18338 6.66737L7.60956 5.29511C7.73268 4.90163 8.26683 4.90163 8.38995 5.29511Z" fill="#FF3871"/>
</svg>
