<svg width="24" height="24" viewBox="0 0 18 18" fill="none" xmlns="http://www.w3.org/2000/svg">
<path fill-rule="evenodd" clip-rule="evenodd" d="M8.94801 0.314835C9.23478 0.0584411 9.64554 -0.0763557 10.0831 0.0452414C10.4203 0.139239 10.7486 0.277236 11.0598 0.459231C12.3229 1.19801 14.0456 2.38878 15.4582 4.04074C16.8741 5.6967 18 7.84305 18 10.4702C18 13.0405 16.9789 14.9561 15.2986 16.21C13.642 17.446 11.401 18 9 18C6.59901 18 4.35801 17.446 2.70136 16.21C1.02111 14.9557 0 13.0405 0 10.4702C0 6.63108 2.39779 3.82635 4.61679 2.04999C5.44592 1.38601 6.53102 1.906 6.82939 2.74438C7.03458 3.31956 7.27855 3.77755 7.54533 4.04194C7.56653 4.06274 7.59013 4.07234 7.62932 4.06714C7.68759 4.05671 7.73936 4.02363 7.77331 3.97514C8.23007 3.35356 8.43125 2.33319 8.48525 1.30161C8.50484 0.92322 8.67083 0.562429 8.94801 0.314835ZM9.29078 8.73223C9.20037 8.68751 9.10086 8.66425 9 8.66425C8.89914 8.66425 8.79964 8.68751 8.70923 8.73223C7.9209 9.11942 5.80028 10.3554 5.80028 12.4393C5.80028 14.2065 7.23296 14.9993 9 14.9993C10.767 14.9993 12.1997 14.2065 12.1997 12.4393C12.1997 10.3554 10.0791 9.11942 9.29078 8.73223Z" fill="currentColor"/>
</svg>
