<svg width="24" height="24" viewBox="0 0 24 24" fill="none" xmlns="http://www.w3.org/2000/svg">
<g clip-path="url(#clip0_377_2670)">
<path fill-rule="evenodd" clip-rule="evenodd" d="M11.9422 2.34982C12.2609 2.06493 12.7173 1.91516 13.2034 2.05027C13.5781 2.15471 13.9429 2.30804 14.2887 2.51026C15.6921 3.33113 17.6062 4.6542 19.1758 6.48971C20.749 8.32967 22 10.7145 22 13.6335C22 16.4895 20.8654 18.6179 18.9985 20.0112C17.1578 21.3845 14.6678 22 12 22C9.33224 22 6.84224 21.3845 5.00151 20.0112C3.13457 18.6174 2 16.4895 2 13.6335C2 9.36787 4.66421 6.2515 7.12977 4.27777C8.05102 3.54001 9.25669 4.11777 9.58822 5.04931C9.81619 5.6884 10.0873 6.19728 10.3837 6.49105C10.4073 6.51416 10.4335 6.52482 10.477 6.51905C10.5418 6.50745 10.5993 6.4707 10.637 6.41683C11.1445 5.72618 11.3681 4.59243 11.4281 3.44623C11.4498 3.0258 11.6343 2.62492 11.9422 2.34982ZM12.3231 11.7025C12.2226 11.6528 12.1121 11.6269 12 11.6269C11.8879 11.6269 11.7774 11.6528 11.6769 11.7025C10.801 12.1327 8.44476 13.506 8.44476 15.8215C8.44476 17.785 10.0366 18.6659 12 18.6659C13.9634 18.6659 15.5552 17.785 15.5552 15.8215C15.5552 13.506 13.199 12.1327 12.3231 11.7025Z" fill="currentColor"/>
</g>
<defs>
<clipPath id="clip0_377_2670">
<rect width="24" height="24" fill="white"/>
</clipPath>
</defs>
</svg>
